<svg xmlns="http://www.w3.org/2000/svg" width="142.019" height="41.899" viewBox="0 0 142.019 41.899"><g transform="translate(0)"><path d="M2252.094-1964.143a2.4,2.4,0,0,0-2.41,1.755,6.935,6.935,0,0,0-.348,2.383,5.038,5.038,0,0,0,.348,1.98,2.4,2.4,0,0,0,2.41,1.558,2.42,2.42,0,0,0,1.972-.99,4.7,4.7,0,0,0,.786-2.96,5.512,5.512,0,0,0-.348-2.065A2.4,2.4,0,0,0,2252.094-1964.143Z" transform="translate(-2178.935 1988.048)"/><path d="M1980.265-1964.143a2.4,2.4,0,0,0-2.41,1.755,6.932,6.932,0,0,0-.348,2.383,5.036,5.036,0,0,0,.348,1.98,2.4,2.4,0,0,0,2.41,1.558,2.42,2.42,0,0,0,1.973-.99,4.7,4.7,0,0,0,.786-2.96,5.51,5.51,0,0,0-.349-2.065A2.4,2.4,0,0,0,1980.265-1964.143Z" transform="translate(-1918.263 1988.048)"/><path d="M2351.26-2315.11a1.254,1.254,0,0,0-1.168.619,2.893,2.893,0,0,0-.365,1.494,2.517,2.517,0,0,0,.365,1.4,1.281,1.281,0,0,0,1.158.56,1.205,1.205,0,0,0,1.194-.666,3.347,3.347,0,0,0,.323-1.481,2.659,2.659,0,0,0-.234-1.2A1.311,1.311,0,0,0,2351.26-2315.11Z" transform="translate(-2275.208 2324.61)"/><path d="M2498.777-2266.806l-.535.069a2.076,2.076,0,0,0-.724.2.784.784,0,0,0-.411.736.728.728,0,0,0,.281.6,1.041,1.041,0,0,0,.664.221,2.023,2.023,0,0,0,.905-.216,1.216,1.216,0,0,0,.738-1.174v-.712a1.5,1.5,0,0,1-.417.173A3.49,3.49,0,0,1,2498.777-2266.806Z" transform="translate(-2416.538 2278.549)"/><path d="M1786.482-2311.036a1.205,1.205,0,0,0,1.194-.666,3.345,3.345,0,0,0,.323-1.481,2.659,2.659,0,0,0-.234-1.2,1.311,1.311,0,0,0-1.274-.727,1.254,1.254,0,0,0-1.168.619,2.893,2.893,0,0,0-.365,1.494,2.517,2.517,0,0,0,.365,1.4A1.281,1.281,0,0,0,1786.482-2311.036Z" transform="translate(-1733.618 2324.61)"/><path d="M2647.718-2309.666a1.205,1.205,0,0,0,1.006-.529,2.509,2.509,0,0,0,.394-1.518,2.252,2.252,0,0,0-.406-1.478,1.265,1.265,0,0,0-1-.48,1.324,1.324,0,0,0-1.08.511,2.355,2.355,0,0,0-.413,1.506,2.622,2.622,0,0,0,.357,1.417A1.25,1.25,0,0,0,2647.718-2309.666Z" transform="translate(-2559.527 2323.23)"/><path d="M3495.4-2313.632a1.273,1.273,0,0,0-1.205-.639,1.331,1.331,0,0,0-1.015.44,1.672,1.672,0,0,0-.434,1.119h2.9A2.316,2.316,0,0,0,3495.4-2313.632Z" transform="translate(-3371.314 2323.806)"/><path d="M1623.776-2352.718a3.072,3.072,0,0,0,.409-1.122,4.37,4.37,0,0,0,.072-.758,3.589,3.589,0,0,0-.522-2.086,1.911,1.911,0,0,0-1.681-.743h-1.7v5.55h1.708a2.584,2.584,0,0,0,.8-.1A1.764,1.764,0,0,0,1623.776-2352.718Z" transform="translate(-1575.771 2365.19)"/><path d="M2874.678-2315.11a1.253,1.253,0,0,0-1.167.619,2.89,2.89,0,0,0-.365,1.494,2.515,2.515,0,0,0,.365,1.4,1.28,1.28,0,0,0,1.158.56,1.206,1.206,0,0,0,1.194-.666,3.347,3.347,0,0,0,.323-1.481,2.659,2.659,0,0,0-.233-1.2A1.311,1.311,0,0,0,2874.678-2315.11Z" transform="translate(-2777.143 2324.61)"/><path d="M1699.873-2029.386h4.316l-2.093-6.09Z" transform="translate(-1652.025 2056.453)"/><path d="M3051.81-1965.515a2.391,2.391,0,0,0-2.227,1.181,5.521,5.521,0,0,0-.7,2.849,4.8,4.8,0,0,0,.7,2.671,2.443,2.443,0,0,0,2.208,1.068,2.3,2.3,0,0,0,2.278-1.27,6.377,6.377,0,0,0,.617-2.826,5.075,5.075,0,0,0-.446-2.287A2.5,2.5,0,0,0,3051.81-1965.515Z" transform="translate(-2945.673 1989.364)"/><path d="M3463.961-1963.914a2.537,2.537,0,0,0-1.935.84,3.186,3.186,0,0,0-.828,2.135h5.536a4.408,4.408,0,0,0-.475-1.755A2.427,2.427,0,0,0,3463.961-1963.914Z" transform="translate(-3341.06 1987.828)"/><path d="M667.46-2546.588H542.617a8.588,8.588,0,0,0-8.588,8.588v24.723a8.588,8.588,0,0,0,8.588,8.588H667.46a8.588,8.588,0,0,0,8.588-8.588V-2538A8.588,8.588,0,0,0,667.46-2546.588Zm-12.284,9.555a2.252,2.252,0,0,1,1.79-.792,2.379,2.379,0,0,1,1.081.263,2,2,0,0,1,.8.682,2.36,2.36,0,0,1,.352.93,6.124,6.124,0,0,1,.078,1.161h-3.833a2.278,2.278,0,0,0,.376,1.29,1.254,1.254,0,0,0,1.089.486,1.4,1.4,0,0,0,1.1-.46,1.566,1.566,0,0,0,.325-.618h.871a1.836,1.836,0,0,1-.229.647,2.329,2.329,0,0,1-.434.583,2.042,2.042,0,0,1-.991.531,2.99,2.99,0,0,1-.718.079,2.2,2.2,0,0,1-1.657-.716,2.8,2.8,0,0,1-.68-2A3.039,3.039,0,0,1,655.176-2537.033Zm-19.617-.674h.841v.748a2.355,2.355,0,0,1,.792-.664,2.112,2.112,0,0,1,.93-.2,1.533,1.533,0,0,1,1.515.782,2.778,2.778,0,0,1,.216,1.225v3.38h-.9v-3.321a1.8,1.8,0,0,0-.143-.777.865.865,0,0,0-.856-.492,1.74,1.74,0,0,0-.517.064,1.33,1.33,0,0,0-.64.433,1.3,1.3,0,0,0-.288.539,3.618,3.618,0,0,0-.066.794v2.76h-.886Zm-15.191.75a1.915,1.915,0,0,1,1.674-.844,1.863,1.863,0,0,1,1.01.256,2.375,2.375,0,0,1,.534.517v-2.662h.851v7.252h-.8v-.733a1.914,1.914,0,0,1-.73.7,2.084,2.084,0,0,1-.966.217,1.952,1.952,0,0,1-1.519-.741,2.9,2.9,0,0,1-.642-1.97A3.41,3.41,0,0,1,620.368-2536.957Zm-15.139-2.708h.885v7.228h-.885Zm-20.1,2.592a2.241,2.241,0,0,1,1.8-.787,2.361,2.361,0,0,1,1.71.679,2.659,2.659,0,0,1,.7,2,3.44,3.44,0,0,1-.616,2.1,2.221,2.221,0,0,1-1.91.831,2.151,2.151,0,0,1-1.715-.735,2.915,2.915,0,0,1-.635-1.974A3.153,3.153,0,0,1,585.129-2537.073Zm-27.9-.855a6.8,6.8,0,0,1,4.234-2.136,6.36,6.36,0,0,1-1.47,4.656,5.856,5.856,0,0,1-4.336,2.03A5.9,5.9,0,0,1,557.231-2537.929ZM561-2511.148c-1.789,0-2.645-1.187-4.7-1.187-2.152,0-2.985,1.211-4.874,1.211-2.884,0-7.472-6.709-7.472-13.248,0-5.675,3.616-8.614,7.186-8.614,1.8,0,3.749,1.211,4.72,1.211,1.357,0,2.73-1.331,5.221-1.331a6.96,6.96,0,0,1,5.721,2.92,6.332,6.332,0,0,0-3.157,5.481,6.337,6.337,0,0,0,3.841,5.825C566.1-2514.6,563.465-2511.148,561-2511.148Zm16.623-28.518h2.889a2.709,2.709,0,0,1,2.282,1.058,3.937,3.937,0,0,1,.723,2.445,4.93,4.93,0,0,1-.427,2.081,2.634,2.634,0,0,1-2.588,1.643h-2.879Zm10.568,25.793-1.4-4.129h-5.452l-1.492,4.129h-1.914l5.189-13.784h2.111l5,13.784Zm3.354-23.835,1.013,4.152,1.028-4.152h.994l1.033,4.128,1.078-4.128h.886l-1.53,5.269h-.92l-1.073-4.079-1.038,4.079h-.92l-1.52-5.269Zm7.255,23.282a3.9,3.9,0,0,1-2.544.891,3.462,3.462,0,0,1-1.912-.5,4.4,4.4,0,0,1-1.008-.967v5.133h-1.689v-14.01H593.3v1.333a4.1,4.1,0,0,1,1.11-1.061,3.58,3.58,0,0,1,2.013-.563,3.791,3.791,0,0,1,2.907,1.309,5.355,5.355,0,0,1,1.195,3.739Q600.526-2515.833,598.8-2514.426Zm3.417-22.111a.865.865,0,0,0-.856-.492,1.74,1.74,0,0,0-.517.064,1.33,1.33,0,0,0-.64.433,1.3,1.3,0,0,0-.288.539,3.622,3.622,0,0,0-.066.794v2.76h-.886v-5.269h.841v.748a2.355,2.355,0,0,1,.792-.664,2.111,2.111,0,0,1,.93-.2,1.533,1.533,0,0,1,1.515.782,2.779,2.779,0,0,1,.216,1.225v3.38h-.9v-3.321A1.8,1.8,0,0,0,602.219-2536.536Zm7.739,22.111a3.9,3.9,0,0,1-2.544.891,3.463,3.463,0,0,1-1.912-.5,4.4,4.4,0,0,1-1.008-.967v5.133h-1.689v-14.01h1.651v1.333a4.1,4.1,0,0,1,1.11-1.061,3.58,3.58,0,0,1,2.013-.563,3.791,3.791,0,0,1,2.907,1.309,5.355,5.355,0,0,1,1.195,3.739Q611.682-2515.833,609.958-2514.426Zm1.941-18.656a2.221,2.221,0,0,1-1.91.831,2.151,2.151,0,0,1-1.715-.735,2.915,2.915,0,0,1-.635-1.974,3.154,3.154,0,0,1,.669-2.114,2.241,2.241,0,0,1,1.8-.787,2.361,2.361,0,0,1,1.71.679,2.658,2.658,0,0,1,.7,2A3.44,3.44,0,0,1,611.9-2533.082Zm4.554.56a2.4,2.4,0,0,1-1.117.261,1.662,1.662,0,0,1-1.2-.445,1.477,1.477,0,0,1-.465-1.113,1.433,1.433,0,0,1,.458-1.135,2.179,2.179,0,0,1,1.2-.5l1.412-.177a.48.48,0,0,0,.408-.255.784.784,0,0,0,.059-.341.724.724,0,0,0-.322-.659,1.717,1.717,0,0,0-.921-.205,1.166,1.166,0,0,0-.982.376,1.243,1.243,0,0,0-.211.618h-.827a1.527,1.527,0,0,1,.631-1.359,2.585,2.585,0,0,1,1.408-.383,2.863,2.863,0,0,1,1.509.354,1.2,1.2,0,0,1,.575,1.1v3.036a.388.388,0,0,0,.057.221.273.273,0,0,0,.239.083q.059,0,.133-.007t.157-.022v.654a2.431,2.431,0,0,1-.315.074,2.319,2.319,0,0,1-.3.015.729.729,0,0,1-.664-.324,1.254,1.254,0,0,1-.153-.487A2.252,2.252,0,0,1,616.453-2532.522Zm9.74,18.068a7.133,7.133,0,0,1-3.775.985,5.555,5.555,0,0,1-3.926-1.314,4.486,4.486,0,0,1-1.391-3.538h1.755a3.871,3.871,0,0,0,.533,1.9,3.48,3.48,0,0,0,3.155,1.37,5.392,5.392,0,0,0,1.844-.3,2.113,2.113,0,0,0,1.609-2.083,1.823,1.823,0,0,0-.682-1.6,6.761,6.761,0,0,0-2.163-.816l-1.809-.422a8.028,8.028,0,0,1-2.509-.91,2.912,2.912,0,0,1-1.273-2.581,4.028,4.028,0,0,1,1.251-3.05,4.935,4.935,0,0,1,3.543-1.191,6.033,6.033,0,0,1,3.584,1.046,3.817,3.817,0,0,1,1.475,3.345h-1.755a3.55,3.55,0,0,0-.576-1.7,3.275,3.275,0,0,0-2.78-1.079,3.128,3.128,0,0,0-2.276.694,2.217,2.217,0,0,0-.693,1.614,1.586,1.586,0,0,0,.818,1.483,11.734,11.734,0,0,0,2.428.751l1.873.441a5.642,5.642,0,0,1,2.091.873,3.308,3.308,0,0,1,1.273,2.806A3.527,3.527,0,0,1,626.193-2514.454Zm7.686-8.088h-1.6v6.559a.709.709,0,0,0,.357.7,1.511,1.511,0,0,0,.657.1q.122,0,.263-.006t.328-.031v1.342a3.751,3.751,0,0,1-.605.122,5.781,5.781,0,0,1-.68.037,1.834,1.834,0,0,1-1.6-.6,2.69,2.69,0,0,1-.422-1.572v-6.653h-1.361v-1.379h1.361v-2.806h1.708v2.806h1.6Zm-.5-10.54a2.221,2.221,0,0,1-1.91.831,2.151,2.151,0,0,1-1.715-.735,2.915,2.915,0,0,1-.635-1.974,3.154,3.154,0,0,1,.669-2.114,2.241,2.241,0,0,1,1.8-.787,2.361,2.361,0,0,1,1.71.679,2.658,2.658,0,0,1,.7,2A3.44,3.44,0,0,1,633.381-2533.082Zm10.252,17.982a4.235,4.235,0,0,1-3.643,1.584,4.1,4.1,0,0,1-3.271-1.4,5.558,5.558,0,0,1-1.211-3.764,6.014,6.014,0,0,1,1.276-4.031,4.272,4.272,0,0,1,3.429-1.5,4.5,4.5,0,0,1,3.261,1.294,5.07,5.07,0,0,1,1.332,3.806A6.559,6.559,0,0,1,643.633-2515.1Zm2.648-17.254a.961.961,0,0,1-.841-.318,1.41,1.41,0,0,1-.221-.824v-3.489h-.713v-.723h.713v-1.471h.9v1.471h.841v.723h-.841v3.439a.371.371,0,0,0,.187.369.789.789,0,0,0,.344.054c.043,0,.089,0,.138,0s.107-.008.172-.016v.7a2.038,2.038,0,0,1-.317.064A3.054,3.054,0,0,1,646.281-2532.354Zm5.379,10.037a2.543,2.543,0,0,0-.277-.038q-.127-.009-.277-.009a2.41,2.41,0,0,0-1.961.821,2.865,2.865,0,0,0-.685,1.891v5.78h-1.689v-10.05h1.6v1.736a3.834,3.834,0,0,1,.967-1.234,2.505,2.505,0,0,1,1.773-.727q.047,0,.16.009l.385.038Zm.289-14.293a.943.943,0,0,0-.905-.433,1.508,1.508,0,0,0-1,.379,1.821,1.821,0,0,0-.448,1.432v2.795h-.886v-7.252h.886v2.7a2.563,2.563,0,0,1,.566-.561,1.909,1.909,0,0,1,1.068-.281,1.579,1.579,0,0,1,1.555.8,2.734,2.734,0,0,1,.221,1.215v3.38h-.91v-3.321A1.858,1.858,0,0,0,651.95-2536.61Zm2.9,20.714a2.39,2.39,0,0,0,2.076.927,2.668,2.668,0,0,0,2.095-.876,2.987,2.987,0,0,0,.62-1.178H661.3a3.5,3.5,0,0,1-.436,1.234,4.435,4.435,0,0,1-.827,1.112,3.9,3.9,0,0,1-1.891,1.013,5.714,5.714,0,0,1-1.369.15,4.2,4.2,0,0,1-3.161-1.365,5.333,5.333,0,0,1-1.3-3.824,5.8,5.8,0,0,1,1.306-3.932,4.3,4.3,0,0,1,3.413-1.511,4.533,4.533,0,0,1,2.061.5,3.805,3.805,0,0,1,1.52,1.3,4.5,4.5,0,0,1,.672,1.773,11.678,11.678,0,0,1,.149,2.215h-7.31A4.343,4.343,0,0,0,654.846-2515.9Z" transform="translate(-534.029 2546.588)"/><path d="M1609.037-2085.318l-5.189,13.784h1.914l1.492-4.129h5.452l1.4,4.129h2.046l-5-13.784Zm-1.248,8.135,2.224-6.09,2.092,6.09Z" transform="translate(-1559.94 2104.25)" fill="#fff"/><path d="M1942.727-2000.267a3.58,3.58,0,0,0-2.013.563,4.1,4.1,0,0,0-1.11,1.061v-1.333h-1.652v14.01h1.689v-5.133a4.4,4.4,0,0,0,1.008.967,3.463,3.463,0,0,0,1.912.5,3.9,3.9,0,0,0,2.544-.891q1.724-1.408,1.724-4.692a5.355,5.355,0,0,0-1.195-3.739A3.791,3.791,0,0,0,1942.727-2000.267Zm1.58,8.168a2.421,2.421,0,0,1-1.972.99,2.4,2.4,0,0,1-2.41-1.558,5.037,5.037,0,0,1-.348-1.98,6.933,6.933,0,0,1,.348-2.384,2.4,2.4,0,0,1,2.41-1.755,2.4,2.4,0,0,1,2.41,1.661,5.509,5.509,0,0,1,.348,2.064A4.7,4.7,0,0,1,1944.307-1992.1Z" transform="translate(-1880.332 2022.689)" fill="#fff"/><path d="M2214.557-2000.267a3.581,3.581,0,0,0-2.013.563,4.1,4.1,0,0,0-1.11,1.061v-1.333h-1.652v14.01h1.689v-5.133a4.4,4.4,0,0,0,1.008.967,3.463,3.463,0,0,0,1.912.5,3.9,3.9,0,0,0,2.543-.891q1.724-1.408,1.724-4.692a5.355,5.355,0,0,0-1.195-3.739A3.791,3.791,0,0,0,2214.557-2000.267Zm1.58,8.168a2.421,2.421,0,0,1-1.973.99,2.4,2.4,0,0,1-2.41-1.558,5.034,5.034,0,0,1-.349-1.98,6.929,6.929,0,0,1,.349-2.384,2.4,2.4,0,0,1,2.41-1.755,2.4,2.4,0,0,1,2.41,1.661,5.511,5.511,0,0,1,.348,2.064A4.7,4.7,0,0,1,2216.137-1992.1Z" transform="translate(-2141.006 2022.689)" fill="#fff"/><path d="M2567.539-2086.308a5.642,5.642,0,0,0-2.091-.873l-1.873-.441a11.745,11.745,0,0,1-2.428-.75,1.586,1.586,0,0,1-.818-1.483,2.217,2.217,0,0,1,.693-1.614,3.129,3.129,0,0,1,2.276-.694,3.274,3.274,0,0,1,2.78,1.079,3.545,3.545,0,0,1,.576,1.7h1.755a3.817,3.817,0,0,0-1.475-3.345,6.036,6.036,0,0,0-3.584-1.046,4.935,4.935,0,0,0-3.543,1.192,4.027,4.027,0,0,0-1.251,3.05,2.911,2.911,0,0,0,1.272,2.58,8.029,8.029,0,0,0,2.509.91l1.809.422a6.759,6.759,0,0,1,2.163.816,1.823,1.823,0,0,1,.682,1.6,2.113,2.113,0,0,1-1.609,2.083,5.392,5.392,0,0,1-1.844.3,3.479,3.479,0,0,1-3.155-1.37,3.871,3.871,0,0,1-.533-1.9H2558.1a4.487,4.487,0,0,0,1.391,3.538,5.555,5.555,0,0,0,3.926,1.313,7.135,7.135,0,0,0,3.775-.985,3.528,3.528,0,0,0,1.624-3.275A3.308,3.308,0,0,0,2567.539-2086.308Z" transform="translate(-2475.024 2112.361)" fill="#fff"/><path d="M2856.112-2062.683H2854.4v2.806h-1.361v1.379h1.361v6.653a2.688,2.688,0,0,0,.422,1.572,1.833,1.833,0,0,0,1.6.6,5.782,5.782,0,0,0,.68-.037,3.744,3.744,0,0,0,.6-.122v-1.342q-.187.025-.328.031c-.094,0-.182.006-.263.006a1.514,1.514,0,0,1-.657-.1.709.709,0,0,1-.356-.7v-6.559h1.6v-1.379h-1.6Z" transform="translate(-2757.867 2082.543)" fill="#fff"/><path d="M3011.3-2001.41a4.272,4.272,0,0,0-3.429,1.5,6.013,6.013,0,0,0-1.277,4.031,5.558,5.558,0,0,0,1.211,3.764,4.1,4.1,0,0,0,3.271,1.4,4.236,4.236,0,0,0,3.643-1.584,6.561,6.561,0,0,0,1.174-4.013,5.071,5.071,0,0,0-1.332-3.806A4.5,4.5,0,0,0,3011.3-2001.41Zm2.212,7.973a2.3,2.3,0,0,1-2.278,1.27,2.443,2.443,0,0,1-2.208-1.068,4.8,4.8,0,0,1-.7-2.671,5.518,5.518,0,0,1,.7-2.849,2.391,2.391,0,0,1,2.227-1.181,2.5,2.5,0,0,1,2.431,1.387,5.078,5.078,0,0,1,.445,2.287A6.376,6.376,0,0,1,3013.508-1993.437Z" transform="translate(-2905.111 2023.785)" fill="#fff"/><path d="M3285.374-1999.809a2.506,2.506,0,0,0-1.773.727,3.835,3.835,0,0,0-.967,1.234v-1.736h-1.6v10.05h1.689v-5.78a2.866,2.866,0,0,1,.685-1.891,2.41,2.41,0,0,1,1.961-.821q.151,0,.277.009a2.549,2.549,0,0,1,.277.037v-1.783q-.273-.028-.385-.038C3285.458-1999.806,3285.405-1999.809,3285.374-1999.809Z" transform="translate(-3168.287 2022.25)" fill="#fff"/><path d="M3425.128-1996.234a4.512,4.512,0,0,0-.671-1.774,3.813,3.813,0,0,0-1.521-1.3,4.534,4.534,0,0,0-2.061-.5,4.3,4.3,0,0,0-3.414,1.511,5.8,5.8,0,0,0-1.306,3.932,5.332,5.332,0,0,0,1.3,3.824,4.192,4.192,0,0,0,3.161,1.365,5.705,5.705,0,0,0,1.369-.15,3.9,3.9,0,0,0,1.891-1.013,4.445,4.445,0,0,0,.827-1.112,3.5,3.5,0,0,0,.436-1.234h-1.661a2.991,2.991,0,0,1-.621,1.178,2.668,2.668,0,0,1-2.095.876,2.389,2.389,0,0,1-2.076-.927,4.342,4.342,0,0,1-.717-2.461h7.31A11.709,11.709,0,0,0,3425.128-1996.234Zm-7.123.873a3.186,3.186,0,0,1,.828-2.135,2.537,2.537,0,0,1,1.935-.84,2.427,2.427,0,0,1,2.3,1.22,4.408,4.408,0,0,1,.475,1.755Z" transform="translate(-3297.868 2022.25)" fill="#fff"/><path d="M1601.727-2372.341a4.928,4.928,0,0,0,.427-2.081,3.936,3.936,0,0,0-.724-2.445,2.709,2.709,0,0,0-2.282-1.058h-2.889v7.227h2.879A2.634,2.634,0,0,0,1601.727-2372.341Zm-4.478.807v-5.55h1.7a1.911,1.911,0,0,1,1.681.743,3.59,3.59,0,0,1,.522,2.086,4.375,4.375,0,0,1-.072.758,3.071,3.071,0,0,1-.409,1.122,1.763,1.763,0,0,1-.914.738,2.584,2.584,0,0,1-.8.1Z" transform="translate(-1552.664 2384.847)" fill="#fff"/><path d="M1765.132-2328.322a2.22,2.22,0,0,0,1.91-.831,3.439,3.439,0,0,0,.616-2.1,2.659,2.659,0,0,0-.7-2,2.361,2.361,0,0,0-1.71-.678,2.24,2.24,0,0,0-1.8.787,3.154,3.154,0,0,0-.669,2.114,2.914,2.914,0,0,0,.635,1.974A2.15,2.15,0,0,0,1765.132-2328.322Zm-1.075-4.217a1.253,1.253,0,0,1,1.167-.619,1.311,1.311,0,0,1,1.275.727,2.661,2.661,0,0,1,.234,1.2,3.345,3.345,0,0,1-.324,1.481,1.205,1.205,0,0,1-1.194.666,1.28,1.28,0,0,1-1.158-.56,2.514,2.514,0,0,1-.365-1.4A2.892,2.892,0,0,1,1764.057-2332.539Z" transform="translate(-1712.351 2342.659)" fill="#fff"/><path d="M1914.281-2324.945l1.038-4.079,1.073,4.079h.92l1.53-5.269h-.885l-1.078,4.128-1.033-4.128h-.994l-1.028,4.152-1.014-4.152h-.969l1.521,5.269Z" transform="translate(-1855.293 2339.095)" fill="#fff"/><path d="M2120.555-2327.7v-3.38a2.778,2.778,0,0,0-.216-1.225,1.533,1.533,0,0,0-1.515-.782,2.113,2.113,0,0,0-.93.2,2.362,2.362,0,0,0-.792.664v-.748h-.841v5.27h.886v-2.76a3.634,3.634,0,0,1,.066-.795,1.3,1.3,0,0,1,.288-.539,1.331,1.331,0,0,1,.64-.433,1.747,1.747,0,0,1,.516-.064.865.865,0,0,1,.856.492,1.8,1.8,0,0,1,.143.777v3.321Z" transform="translate(-2051.322 2341.854)" fill="#fff"/><rect width="0.886" height="7.227" transform="translate(71.2 6.922)" fill="#fff"/><path d="M2330.018-2333.931a2.24,2.24,0,0,0-1.8.787,3.154,3.154,0,0,0-.669,2.114,2.914,2.914,0,0,0,.635,1.974,2.15,2.15,0,0,0,1.715.735,2.22,2.22,0,0,0,1.91-.831,3.439,3.439,0,0,0,.616-2.1,2.659,2.659,0,0,0-.7-2A2.362,2.362,0,0,0,2330.018-2333.931Zm1.16,4.18a1.206,1.206,0,0,1-1.194.666,1.28,1.28,0,0,1-1.158-.56,2.516,2.516,0,0,1-.365-1.4,2.9,2.9,0,0,1,.365-1.494,1.253,1.253,0,0,1,1.167-.619,1.311,1.311,0,0,1,1.275.727,2.663,2.663,0,0,1,.234,1.2A3.343,3.343,0,0,1,2331.178-2329.75Z" transform="translate(-2253.941 2342.659)" fill="#fff"/><path d="M2478.28-2328.145a.729.729,0,0,0,.664.324,2.268,2.268,0,0,0,.3-.015,2.422,2.422,0,0,0,.315-.073v-.654c-.056.01-.108.017-.158.022s-.094.007-.133.007a.274.274,0,0,1-.239-.083.39.39,0,0,1-.056-.221v-3.036a1.2,1.2,0,0,0-.575-1.1,2.861,2.861,0,0,0-1.509-.354,2.584,2.584,0,0,0-1.408.382,1.527,1.527,0,0,0-.632,1.359h.827a1.241,1.241,0,0,1,.211-.618,1.166,1.166,0,0,1,.982-.376,1.719,1.719,0,0,1,.921.2.724.724,0,0,1,.322.659.788.788,0,0,1-.059.341.481.481,0,0,1-.408.255l-1.412.177a2.18,2.18,0,0,0-1.2.5,1.433,1.433,0,0,0-.457,1.135,1.476,1.476,0,0,0,.465,1.113,1.662,1.662,0,0,0,1.2.445,2.4,2.4,0,0,0,1.117-.261,2.25,2.25,0,0,0,.777-.615A1.258,1.258,0,0,0,2478.28-2328.145Zm-.2-1.754a1.216,1.216,0,0,1-.738,1.174,2.023,2.023,0,0,1-.905.216,1.042,1.042,0,0,1-.664-.221.726.726,0,0,1-.281-.6.783.783,0,0,1,.411-.736,2.062,2.062,0,0,1,.724-.2l.535-.069a3.49,3.49,0,0,0,.5-.1,1.507,1.507,0,0,0,.417-.173Z" transform="translate(-2394.927 2342.083)" fill="#fff"/><path d="M2625.6-2371.086a2.085,2.085,0,0,0,.966-.217,1.914,1.914,0,0,0,.73-.7v.733h.8v-7.252h-.851v2.662a2.375,2.375,0,0,0-.534-.517,1.864,1.864,0,0,0-1.01-.256,1.916,1.916,0,0,0-1.674.844,3.412,3.412,0,0,0-.586,2,2.9,2.9,0,0,0,.642,1.971A1.952,1.952,0,0,0,2625.6-2371.086Zm-.813-4.266a1.322,1.322,0,0,1,1.08-.511,1.265,1.265,0,0,1,1,.479,2.252,2.252,0,0,1,.406,1.479,2.507,2.507,0,0,1-.394,1.518,1.2,1.2,0,0,1-1.006.529,1.25,1.25,0,0,1-1.146-.571,2.62,2.62,0,0,1-.357-1.417A2.353,2.353,0,0,1,2624.786-2375.352Z" transform="translate(-2537.684 2385.423)" fill="#fff"/><path d="M2853.435-2333.931a2.239,2.239,0,0,0-1.8.787,3.152,3.152,0,0,0-.669,2.114,2.914,2.914,0,0,0,.635,1.974,2.15,2.15,0,0,0,1.715.735,2.221,2.221,0,0,0,1.91-.831,3.439,3.439,0,0,0,.615-2.1,2.659,2.659,0,0,0-.7-2A2.362,2.362,0,0,0,2853.435-2333.931Zm1.16,4.18a1.205,1.205,0,0,1-1.194.666,1.281,1.281,0,0,1-1.158-.56,2.516,2.516,0,0,1-.365-1.4,2.9,2.9,0,0,1,.365-1.494,1.253,1.253,0,0,1,1.167-.619,1.312,1.312,0,0,1,1.275.727,2.663,2.663,0,0,1,.233,1.2A3.343,3.343,0,0,1,2854.6-2329.75Z" transform="translate(-2755.876 2342.659)" fill="#fff"/><path d="M3008.728-2330.464a3.634,3.634,0,0,1,.066-.795,1.3,1.3,0,0,1,.288-.539,1.332,1.332,0,0,1,.64-.433,1.748,1.748,0,0,1,.517-.064.866.866,0,0,1,.856.492,1.8,1.8,0,0,1,.143.777v3.321h.9v-3.38a2.778,2.778,0,0,0-.217-1.225,1.533,1.533,0,0,0-1.515-.782,2.112,2.112,0,0,0-.93.2,2.36,2.36,0,0,0-.792.664v-.748h-.841v5.27h.885Z" transform="translate(-2906.312 2341.854)" fill="#fff"/><path d="M3228.257-2360.021q-.1.013-.172.016c-.049,0-.095,0-.138,0a.794.794,0,0,1-.344-.054.372.372,0,0,1-.187-.369v-3.439h.842v-.723h-.842v-1.471h-.9v1.471h-.713v.723h.713v3.488a1.413,1.413,0,0,0,.221.824.962.962,0,0,0,.842.317,3.063,3.063,0,0,0,.357-.02,2.013,2.013,0,0,0,.317-.064Z" transform="translate(-3115.331 2373.468)" fill="#fff"/><path d="M3332.615-2371.273v-3.38a2.737,2.737,0,0,0-.222-1.215,1.58,1.58,0,0,0-1.555-.8,1.909,1.909,0,0,0-1.068.281,2.559,2.559,0,0,0-.565.561v-2.7h-.886v7.252h.886v-2.795a1.822,1.822,0,0,1,.448-1.432,1.508,1.508,0,0,1,1-.379.943.943,0,0,1,.905.433,1.855,1.855,0,0,1,.147.851v3.321Z" transform="translate(-3213.636 2385.423)" fill="#fff"/><path d="M3471.468-2327.517a2.99,2.99,0,0,0,.718-.079,2.044,2.044,0,0,0,.991-.531,2.334,2.334,0,0,0,.434-.583,1.831,1.831,0,0,0,.229-.647h-.871a1.566,1.566,0,0,1-.325.618,1.4,1.4,0,0,1-1.1.46,1.254,1.254,0,0,1-1.089-.486,2.275,2.275,0,0,1-.376-1.29h3.833a6.135,6.135,0,0,0-.078-1.161,2.359,2.359,0,0,0-.352-.93,1.994,1.994,0,0,0-.8-.681,2.376,2.376,0,0,0-1.081-.263,2.251,2.251,0,0,0-1.789.792,3.04,3.04,0,0,0-.685,2.062,2.8,2.8,0,0,0,.68,2A2.2,2.2,0,0,0,3471.468-2327.517Zm-.934-4.362a1.33,1.33,0,0,1,1.015-.44,1.273,1.273,0,0,1,1.205.64,2.308,2.308,0,0,1,.249.92h-2.9A1.672,1.672,0,0,1,3470.535-2331.878Z" transform="translate(-3348.668 2341.854)" fill="#fff"/><path d="M1064.723-2383a6.361,6.361,0,0,0,1.47-4.656,6.8,6.8,0,0,0-4.234,2.136,5.9,5.9,0,0,0-1.573,4.549A5.856,5.856,0,0,0,1064.723-2383Z" transform="translate(-1038.757 2394.177)" fill="#fff"/><path d="M795.5-2209.706a6.333,6.333,0,0,1,3.157-5.481,6.96,6.96,0,0,0-5.721-2.92c-2.491,0-3.864,1.331-5.221,1.331-.972,0-2.923-1.211-4.72-1.211-3.57,0-7.186,2.939-7.186,8.614,0,6.539,4.588,13.248,7.472,13.248,1.889,0,2.722-1.211,4.874-1.211,2.059,0,2.915,1.188,4.7,1.188,2.463,0,5.1-3.453,6.482-7.732A6.336,6.336,0,0,1,795.5-2209.706Z" transform="translate(-765.89 2231.588)" fill="#fff"/></g></svg>