<svg xmlns="http://www.w3.org/2000/svg" width="90.413" height="90.149" viewBox="0 0 90.413 90.149">
  <g id="Group_1145" data-name="Group 1145" transform="translate(-424 -1123)">
    <g id="Group_1111" data-name="Group 1111" transform="translate(425 1124)">
      <g id="Group_1106" data-name="Group 1106" transform="translate(12.389 0)">
        <path id="Path_1083" data-name="Path 1083" d="M3270.623,280.354a1.548,1.548,0,0,1-1.548-1.545V248.536a28.725,28.725,0,0,0-57.45,0V278.81a1.547,1.547,0,0,1-3.093,0V248.536a31.818,31.818,0,0,1,63.636,0V278.81A1.547,1.547,0,0,1,3270.623,280.354Z" transform="translate(-3208.531 -216.72)" fill="#0000df" stroke="#0000df" stroke-width="2"/>
      </g>
      <g id="Group_1107" data-name="Group 1107" transform="translate(0 37.167)">
        <path id="Path_1084" data-name="Path 1084" d="M3177.847,355.621a6.8,6.8,0,0,1-6.793-6.791V335.945a6.8,6.8,0,0,1,6.793-6.791h7.144a1.547,1.547,0,0,1,1.544,1.545v23.378a1.547,1.547,0,0,1-1.544,1.545Zm0-23.376a3.7,3.7,0,0,0-3.7,3.7V348.83a3.7,3.7,0,0,0,3.7,3.7h5.772l-.177-20.462Z" transform="translate(-3171.054 -329.154)" fill="#0000df" stroke="#0000df" stroke-width="2"/>
      </g>
      <g id="Group_1108" data-name="Group 1108" transform="translate(72.932 37.167)">
        <path id="Path_1085" data-name="Path 1085" d="M3393.228,355.621a1.548,1.548,0,0,1-1.548-1.545V330.7a1.548,1.548,0,0,1,1.548-1.545h7.14a6.8,6.8,0,0,1,6.793,6.791V348.83a6.8,6.8,0,0,1-6.793,6.791Zm1.545-2.914,5.6-.177a3.7,3.7,0,0,0,3.7-3.7V335.945a3.7,3.7,0,0,0-3.7-3.7h-5.6Z" transform="translate(-3391.68 -329.154)" fill="#0000df" stroke="#0000df" stroke-width="2"/>
      </g>
      <g id="Group_1109" data-name="Group 1109" transform="translate(33.639 75.936)">
        <path id="Path_1086" data-name="Path 1086" d="M3278.92,458.647a6.107,6.107,0,1,1,6.105-6.106A6.112,6.112,0,0,1,3278.92,458.647Zm0-9.122a3.016,3.016,0,1,0,3.016,3.016A3.021,3.021,0,0,0,3278.92,449.525Z" transform="translate(-3272.815 -446.434)" fill="#0000df" stroke="#0000df" stroke-width="2"/>
      </g>
      <g id="Group_1110" data-name="Group 1110" transform="translate(12.389 60.543)">
        <path id="Path_1087" data-name="Path 1087" d="M3230.031,422.914a21.524,21.524,0,0,1-21.5-21.5,1.547,1.547,0,0,1,3.093,0,18.428,18.428,0,0,0,18.407,18.407h1.295a1.546,1.546,0,0,1,0,3.091Z" transform="translate(-3208.531 -399.869)" fill="#0000df" stroke="#0000df" stroke-width="2"/>
      </g>
    </g>
  </g>
</svg>
