<svg xmlns="http://www.w3.org/2000/svg" width="38.615" height="55.588" viewBox="0 0 38.615 55.588">
  <path id="Path_3318" data-name="Path 3318" d="M1056.321,587.351a19.183,19.183,0,0,0-19.182,19.182,24.769,24.769,0,0,0,4.282,13.231c4.173,6.44,14.9,22.822,14.9,22.822s10.728-16.382,14.9-22.822a24.77,24.77,0,0,0,4.282-13.231A19.182,19.182,0,0,0,1056.321,587.351Zm0,29.908a10.726,10.726,0,1,1,10.726-10.726A10.726,10.726,0,0,1,1056.321,617.259Z" transform="translate(-1037.014 -587.226)" stroke="gray" stroke-width="0.25"/>
</svg>
