<svg xmlns="http://www.w3.org/2000/svg" width="17.672" height="17.672" viewBox="0 0 17.672 17.672">
  <g id="Group_1031" data-name="Group 1031" transform="translate(-1004.191 -2156.191)">
    <g id="Group_1023" data-name="Group 1023" transform="translate(1008.954 2160.954)">
      <line id="Line_61" data-name="Line 61" y2="8.31" transform="translate(4.155)" fill="none" stroke="#000" stroke-linecap="round" stroke-width="0.75"/>
      <line id="Line_62" data-name="Line 62" y2="8.31" transform="translate(8.31 4.155) rotate(90)" fill="none" stroke="#000" stroke-linecap="round" stroke-width="0.75"/>
    </g>
    <g id="Path_3501" data-name="Path 3501" transform="translate(1004.191 2156.191)" fill="none" stroke-linecap="round">
      <path d="M8.836,0A8.836,8.836,0,1,1,0,8.836,8.836,8.836,0,0,1,8.836,0Z" stroke="none"/>
      <path d="M 8.8359375 0.7499980926513672 C 4.377337455749512 0.7499980926513672 0.7499980926513672 4.377337455749512 0.7499980926513672 8.8359375 C 0.7499980926513672 13.29453754425049 4.377337455749512 16.92187690734863 8.8359375 16.92187690734863 C 13.29453754425049 16.92187690734863 16.92187690734863 13.29453754425049 16.92187690734863 8.8359375 C 16.92187690734863 4.377337455749512 13.29453754425049 0.7499980926513672 8.8359375 0.7499980926513672 M 8.8359375 -1.9073486328125e-06 C 13.71588706970215 -1.9073486328125e-06 17.67187690734863 3.955987930297852 17.67187690734863 8.8359375 C 17.67187690734863 13.71588706970215 13.71588706970215 17.67187690734863 8.8359375 17.67187690734863 C 3.955987930297852 17.67187690734863 -1.9073486328125e-06 13.71588706970215 -1.9073486328125e-06 8.8359375 C -1.9073486328125e-06 3.955987930297852 3.955987930297852 -1.9073486328125e-06 8.8359375 -1.9073486328125e-06 Z" stroke="none" fill="#000"/>
    </g>
  </g>
</svg>
