<svg xmlns="http://www.w3.org/2000/svg" width="25.342" height="36.479" viewBox="0 0 25.342 36.479">
  <path id="Path_3298" data-name="Path 3298" d="M1049.685,587.351a12.546,12.546,0,0,0-12.546,12.546,16.2,16.2,0,0,0,2.8,8.653c2.729,4.212,9.745,14.926,9.745,14.926s7.016-10.715,9.745-14.926a16.2,16.2,0,0,0,2.8-8.653A12.546,12.546,0,0,0,1049.685,587.351Zm0,19.561a7.015,7.015,0,1,1,7.015-7.015A7.015,7.015,0,0,1,1049.685,606.912Z" transform="translate(-1037.014 -587.226)" fill="#081edf" stroke="gray" stroke-width="0.25"/>
</svg>
