<?xml version="1.0" encoding="utf-8"?>
<!-- Generator: Adobe Illustrator 23.0.2, SVG Export Plug-In . SVG Version: 6.00 Build 0)  -->
<svg version="1.1" id="Layer_1" xmlns="http://www.w3.org/2000/svg" xmlns:xlink="http://www.w3.org/1999/xlink" x="0px" y="0px"
	 viewBox="0 0 53.6 53.4" style="enable-background:new 0 0 53.6 53.4;" xml:space="preserve">
<style type="text/css">
	.st0{fill:#0000DF;}
	.st1{opacity:0.83;}
	.st2{opacity:0.58;}
	.st3{opacity:0.25;}
</style>
<path class="st0" d="M36.7,20.3c-0.5-0.8-1.2-1.5-1.9-2c-2.3-2-5.2-3-8.1-2.9c-4.2,0.1-8.3,2.4-10.4,6.5c-0.4,0.8-0.7,1.7-1,2.6
	c-0.1,0.5-0.2,1.1-0.3,1.7c0,0,0,0,0,0c0,0.4-0.1,0.7-0.1,1.1c0,0,0,0.1,0,0.1c0,0,0,0,0,0c0,0.2,0,0.4,0,0.6
	c0.3,6.3,5.5,11.3,11.8,11.3c0.9,0,1.9-0.1,2.7-0.3c0.8-0.2,1.5-0.4,2.2-0.8c0.1,0,0.1-0.1,0.2-0.1c0.2-0.1,0.4-0.2,0.6-0.3
	c0.5-0.2,0.9-0.5,1.4-0.8C39.3,33,40.5,25.6,36.7,20.3z"/>
<g class="st1">
	<path class="st0" d="M17.3,13.5c-0.9,0.6-1.7,1.3-2.4,2l2.1,2c0.6-0.6,1.2-1.2,2-1.7c5.3-3.8,12.4-3.3,17.1,0.8l1.9-2.2
		C32.4,9.6,23.8,8.9,17.3,13.5z"/>
	<path class="st0" d="M43.6,27.3c0-1.1-0.1-2.1-0.3-3.1l-2.9,0.6c0.2,0.8,0.2,1.7,0.2,2.6c0,6.5-4.5,12-10.6,13.5l0.7,2.8
		C38.1,41.8,43.6,35.2,43.6,27.3z"/>
	<path class="st0" d="M19.2,42.1c1,0.5,1.9,0.9,2.9,1.2l0.8-2.8c-0.8-0.2-1.6-0.6-2.4-1c-5.8-3-8.6-9.5-7.1-15.6l-2.8-0.7
		C8.8,30.6,12.2,38.5,19.2,42.1z"/>
</g>
<g class="st2">
	<path class="st0" d="M14.8,9.9c-1.1,0.8-2.1,1.7-3,2.6l2.1,2c0.8-0.8,1.6-1.6,2.6-2.2c7-5,16.4-4.3,22.6,1.1l1.9-2.2
		C33.7,4.9,22.9,4.2,14.8,9.9z"/>
	<path class="st0" d="M48,27.3c0-1.4-0.1-2.7-0.4-4l-2.9,0.5c0.2,1.1,0.3,2.2,0.3,3.4c0,8.6-6,15.8-14,17.7l0.7,2.8
		C41.1,45.6,48,37.2,48,27.3z"/>
	<path class="st0" d="M17.2,46c1.2,0.6,2.4,1.1,3.7,1.5l0.8-2.8c-1.1-0.3-2.1-0.7-3.2-1.3c-7.7-3.9-11.4-12.5-9.4-20.5l-2.8-0.7
		C4.1,31.5,8.4,41.5,17.2,46z"/>
</g>
<g class="st3">
	<path class="st0" d="M8.6,9.6l2.1,2c1-1,2-1.9,3.2-2.8c8.7-6.2,20.3-5.3,28,1.4l1.9-2.2C35.1,0.4,22-0.6,12.3,6.4
		C10.9,7.3,9.7,8.4,8.6,9.6z"/>
	<path class="st0" d="M51.9,22.5L49.1,23c0.3,1.4,0.4,2.8,0.4,4.2c0,10.6-7.4,19.6-17.3,22l0.7,2.8C44,49.4,52.4,39.3,52.4,27.3
		C52.4,25.6,52.2,24,51.9,22.5z"/>
	<path class="st0" d="M19.7,51.7l0.8-2.8c-1.3-0.4-2.7-0.9-4-1.6C7.1,42.4,2.5,31.8,4.9,21.8l-2.8-0.7c-2.7,11.2,2.5,23.2,13.2,28.7
		C16.7,50.6,18.2,51.2,19.7,51.7z"/>
</g>
</svg>
