<svg id="Group_1142" data-name="Group 1142" xmlns="http://www.w3.org/2000/svg" width="88.414" height="88.414" viewBox="0 0 88.414 88.414">
  <path id="Path_1108" data-name="Path 1108" d="M688.324,226.585a39.645,39.645,0,1,1-39.644,39.645,39.645,39.645,0,0,1,39.644-39.645m0-4.562a44.207,44.207,0,1,1-44.207,44.207A44.207,44.207,0,0,1,688.324,222.023Z" transform="translate(-644.117 -222.023)" fill="#0000df" fill-rule="evenodd"/>
  <path id="Path_1109" data-name="Path 1109" d="M777.3,336.043l-10.6-9.917a2.517,2.517,0,0,0-3.236-.437,2.462,2.462,0,0,0-.429,3.891l17.008,15.942,17.008-15.942a2.36,2.36,0,0,0,.751-2.032,2.634,2.634,0,0,0-.909-1.657,2.5,2.5,0,0,0-3.484.212l-10.641,9.954V305.965H777.3Z" transform="translate(-735.88 -287.221)" fill="#0000df" fill-rule="evenodd"/>
  <path id="Path_1110" data-name="Path 1110" d="M752.5,504.084h39.211a.516.516,0,0,1,.515.515v4.051a.516.516,0,0,1-.515.515H752.5a.516.516,0,0,1-.515-.515V504.6a.516.516,0,0,1,.515-.515" transform="translate(-727.9 -441.102)" fill="#0000df" fill-rule="evenodd"/>
</svg>
