<svg xmlns="http://www.w3.org/2000/svg" width="52.466" height="39.814" viewBox="0 0 52.466 39.814">
  <g id="Group_1105" data-name="Group 1105" transform="translate(0.15 0.15)">
    <g id="Group_1090" data-name="Group 1090" transform="translate(0 0)">
      <path id="Path_1072" data-name="Path 1072" d="M224.661,286.37a3.059,3.059,0,0,1-2.167-.912l-6.779-6.782-29.621.03a3.971,3.971,0,0,1-3.969-3.968V250.824a3.971,3.971,0,0,1,3.969-3.968h44.23a3.971,3.971,0,0,1,3.967,3.968v23.916a3.971,3.971,0,0,1-3.967,3.968H227.67l.1,4.565a3.047,3.047,0,0,1-1.908,2.857A3.157,3.157,0,0,1,224.661,286.37Zm-38.567-37.724a2.18,2.18,0,0,0-2.177,2.177v23.916a2.18,2.18,0,0,0,2.177,2.177h30.021a.886.886,0,0,1,.633.262l7.012,7.012a1.263,1.263,0,0,0,.9.388,1.333,1.333,0,0,0,.513-.106,1.261,1.261,0,0,0,.8-1.2v-5.459a.9.9,0,0,1,.9-.9h3.446a2.18,2.18,0,0,0,2.177-2.177V250.824a2.18,2.18,0,0,0-2.177-2.177Z" transform="translate(-182.125 -246.856)" fill="#0000df" stroke="#0000df" stroke-width="0.3"/>
    </g>
    <g id="Group_1104" data-name="Group 1104" transform="translate(9.65 9.976)">
      <g id="Group_1094" data-name="Group 1094" transform="translate(0)">
        <g id="Group_1091" data-name="Group 1091">
          <path id="Path_1073" data-name="Path 1073" d="M233.424,310.147a.9.9,0,0,1-.9-.9v-9.4a.9.9,0,0,1,1.791,0v9.4A.9.9,0,0,1,233.424,310.147Z" transform="translate(-232.527 -298.96)" fill="#0000df" stroke="#0000df" stroke-width="0.3"/>
        </g>
        <g id="Group_1092" data-name="Group 1092" transform="translate(5.935)">
          <path id="Path_1074" data-name="Path 1074" d="M264.422,310.147a.9.9,0,0,1-.9-.9v-9.4a.9.9,0,0,1,1.791,0v9.4A.9.9,0,0,1,264.422,310.147Z" transform="translate(-263.525 -298.96)" fill="#0000df" stroke="#0000df" stroke-width="0.3"/>
        </g>
        <g id="Group_1093" data-name="Group 1093" transform="translate(0 4.698)">
          <path id="Path_1075" data-name="Path 1075" d="M233.424,325.289a.9.9,0,1,1,0-1.79h5.935a.9.9,0,0,1,0,1.79Z" transform="translate(-232.527 -323.499)" fill="#0000df" stroke="#0000df" stroke-width="0.3"/>
        </g>
      </g>
      <g id="Group_1099" data-name="Group 1099" transform="translate(9.397)">
        <g id="Group_1095" data-name="Group 1095">
          <path id="Path_1076" data-name="Path 1076" d="M282.5,310.147a.9.9,0,0,1-.9-.9v-9.4a.9.9,0,0,1,1.791,0v9.4A.9.9,0,0,1,282.5,310.147Z" transform="translate(-281.607 -298.96)" fill="#0000df" stroke="#0000df" stroke-width="0.3"/>
        </g>
        <g id="Group_1096" data-name="Group 1096" transform="translate(0 4.698)">
          <path id="Path_1077" data-name="Path 1077" d="M282.5,325.289a.9.9,0,1,1,0-1.79h4.183a.9.9,0,0,1,0,1.79Z" transform="translate(-281.607 -323.499)" fill="#0000df" stroke="#0000df" stroke-width="0.3"/>
        </g>
        <g id="Group_1097" data-name="Group 1097">
          <path id="Path_1078" data-name="Path 1078" d="M282.5,300.75a.9.9,0,1,1,0-1.79h4.945a.9.9,0,0,1,0,1.79Z" transform="translate(-281.607 -298.96)" fill="#0000df" stroke="#0000df" stroke-width="0.3"/>
        </g>
        <g id="Group_1098" data-name="Group 1098" transform="translate(0 9.396)">
          <path id="Path_1079" data-name="Path 1079" d="M282.5,349.829a.9.9,0,1,1,0-1.79h4.945a.9.9,0,0,1,0,1.79Z" transform="translate(-281.607 -348.039)" fill="#0000df" stroke="#0000df" stroke-width="0.3"/>
        </g>
      </g>
      <g id="Group_1100" data-name="Group 1100" transform="translate(17.641)">
        <path id="Path_1080" data-name="Path 1080" d="M325.564,310.147a.9.9,0,0,1-.895-.9v-9.4a.895.895,0,1,1,1.789,0v8.6l4.463-.1a.9.9,0,0,1,0,1.79Z" transform="translate(-324.669 -298.96)" fill="#0000df" stroke="#0000df" stroke-width="0.3"/>
      </g>
      <g id="Group_1103" data-name="Group 1103" transform="translate(26.378)">
        <g id="Group_1101" data-name="Group 1101">
          <path id="Path_1081" data-name="Path 1081" d="M371.2,305.448a.9.9,0,0,1-.895-.9v-4.7a.9.9,0,0,1,.895-.895h2.348a3.244,3.244,0,1,1,0,6.489Zm.895-1.688,1.454-.1a1.454,1.454,0,1,0,0-2.908h-1.454Z" transform="translate(-370.304 -298.96)" fill="#0000df" stroke="#0000df" stroke-width="0.3"/>
        </g>
        <g id="Group_1102" data-name="Group 1102" transform="translate(0 4.698)">
          <path id="Path_1082" data-name="Path 1082" d="M371.2,329.988a.9.9,0,0,1-.895-.9v-4.7a.895.895,0,1,1,1.789,0v4.7A.9.9,0,0,1,371.2,329.988Z" transform="translate(-370.304 -323.499)" fill="#0000df" stroke="#0000df" stroke-width="0.3"/>
        </g>
      </g>
    </g>
  </g>
</svg>
