<svg xmlns="http://www.w3.org/2000/svg" width="104.673" height="79.53" viewBox="0 0 104.673 79.53">
  <g id="Group_1105" data-name="Group 1105" transform="translate(0.5 0.5)">
    <g id="Group_1090" data-name="Group 1090" transform="translate(0 0)">
      <path id="Path_1072" data-name="Path 1072" d="M266.66,325.386a6.079,6.079,0,0,1-4.307-1.812L248.88,310.1l-58.868.06a7.893,7.893,0,0,1-7.887-7.885v-47.53a7.893,7.893,0,0,1,7.887-7.885h87.9a7.892,7.892,0,0,1,7.883,7.885v47.53a7.892,7.892,0,0,1-7.883,7.885h-5.274l.2,9.072a6.056,6.056,0,0,1-3.792,5.677A6.273,6.273,0,0,1,266.66,325.386Zm-76.648-74.972a4.333,4.333,0,0,0-4.327,4.327v47.53a4.333,4.333,0,0,0,4.327,4.327h59.664a1.761,1.761,0,0,1,1.258.521l13.936,13.936a2.511,2.511,0,0,0,1.8.771,2.65,2.65,0,0,0,1.019-.212,2.506,2.506,0,0,0,1.6-2.387v-10.85a1.782,1.782,0,0,1,1.782-1.78h6.848a4.333,4.333,0,0,0,4.327-4.327v-47.53a4.333,4.333,0,0,0-4.327-4.327Z" transform="translate(-182.125 -246.856)" fill="#0000df" stroke="#0000df" stroke-width="1"/>
    </g>
    <g id="Group_1104" data-name="Group 1104" transform="translate(19.178 19.826)">
      <g id="Group_1094" data-name="Group 1094" transform="translate(0)">
        <g id="Group_1091" data-name="Group 1091">
          <path id="Path_1073" data-name="Path 1073" d="M234.309,321.193a1.782,1.782,0,0,1-1.782-1.78V300.738a1.78,1.78,0,0,1,3.56,0v18.674A1.781,1.781,0,0,1,234.309,321.193Z" transform="translate(-232.527 -298.96)" fill="#0000df" stroke="#0000df" stroke-width="1"/>
        </g>
        <g id="Group_1092" data-name="Group 1092" transform="translate(11.795)">
          <path id="Path_1074" data-name="Path 1074" d="M265.307,321.193a1.782,1.782,0,0,1-1.782-1.78V300.738a1.78,1.78,0,0,1,3.56,0v18.674A1.781,1.781,0,0,1,265.307,321.193Z" transform="translate(-263.525 -298.96)" fill="#0000df" stroke="#0000df" stroke-width="1"/>
        </g>
        <g id="Group_1093" data-name="Group 1093" transform="translate(0 9.337)">
          <path id="Path_1075" data-name="Path 1075" d="M234.309,327.057a1.779,1.779,0,1,1,0-3.558H246.1a1.779,1.779,0,0,1,0,3.558Z" transform="translate(-232.527 -323.499)" fill="#0000df" stroke="#0000df" stroke-width="1"/>
        </g>
      </g>
      <g id="Group_1099" data-name="Group 1099" transform="translate(18.675)">
        <g id="Group_1095" data-name="Group 1095">
          <path id="Path_1076" data-name="Path 1076" d="M283.389,321.193a1.782,1.782,0,0,1-1.782-1.78V300.738a1.78,1.78,0,0,1,3.56,0v18.674A1.781,1.781,0,0,1,283.389,321.193Z" transform="translate(-281.607 -298.96)" fill="#0000df" stroke="#0000df" stroke-width="1"/>
        </g>
        <g id="Group_1096" data-name="Group 1096" transform="translate(0 9.337)">
          <path id="Path_1077" data-name="Path 1077" d="M283.389,327.057a1.779,1.779,0,1,1,0-3.558H291.7a1.779,1.779,0,0,1,0,3.558Z" transform="translate(-281.607 -323.499)" fill="#0000df" stroke="#0000df" stroke-width="1"/>
        </g>
        <g id="Group_1097" data-name="Group 1097">
          <path id="Path_1078" data-name="Path 1078" d="M283.389,302.518a1.779,1.779,0,1,1,0-3.558h9.829a1.779,1.779,0,0,1,0,3.558Z" transform="translate(-281.607 -298.96)" fill="#0000df" stroke="#0000df" stroke-width="1"/>
        </g>
        <g id="Group_1098" data-name="Group 1098" transform="translate(0 18.675)">
          <path id="Path_1079" data-name="Path 1079" d="M283.389,351.6a1.779,1.779,0,1,1,0-3.558h9.829a1.779,1.779,0,0,1,0,3.558Z" transform="translate(-281.607 -348.039)" fill="#0000df" stroke="#0000df" stroke-width="1"/>
        </g>
      </g>
      <g id="Group_1100" data-name="Group 1100" transform="translate(35.06)">
        <path id="Path_1080" data-name="Path 1080" d="M326.447,321.193a1.781,1.781,0,0,1-1.778-1.78V300.738a1.778,1.778,0,1,1,3.556,0v17.1l8.87-.2a1.779,1.779,0,0,1,0,3.558Z" transform="translate(-324.669 -298.96)" fill="#0000df" stroke="#0000df" stroke-width="1"/>
      </g>
      <g id="Group_1103" data-name="Group 1103" transform="translate(52.424)">
        <g id="Group_1101" data-name="Group 1101">
          <path id="Path_1081" data-name="Path 1081" d="M372.082,311.855a1.781,1.781,0,0,1-1.778-1.78v-9.337a1.781,1.781,0,0,1,1.778-1.778h4.667a6.448,6.448,0,1,1,0,12.9Zm1.778-3.354,2.889-.2a2.89,2.89,0,1,0,0-5.779H373.86Z" transform="translate(-370.304 -298.96)" fill="#0000df" stroke="#0000df" stroke-width="1"/>
        </g>
        <g id="Group_1102" data-name="Group 1102" transform="translate(0 9.337)">
          <path id="Path_1082" data-name="Path 1082" d="M372.082,336.394a1.781,1.781,0,0,1-1.778-1.78v-9.337a1.778,1.778,0,1,1,3.556,0v9.337A1.781,1.781,0,0,1,372.082,336.394Z" transform="translate(-370.304 -323.499)" fill="#0000df" stroke="#0000df" stroke-width="1"/>
        </g>
      </g>
    </g>
  </g>
</svg>
