<svg id="Group_1317" data-name="Group 1317" xmlns="http://www.w3.org/2000/svg" width="41.322" height="60.951" viewBox="0 0 41.322 60.951">
  <g id="Group_1119" data-name="Group 1119" transform="translate(14.189 14.919)">
    <path id="Path_1092" data-name="Path 1092" d="M1299.262,1256.324a1.077,1.077,0,0,1-1.013-.708l-3.374-9.194-7.5,3.993a1.073,1.073,0,0,1-1.054-.041,1.088,1.088,0,0,1-.516-.92v-38.083a1.08,1.08,0,0,1,.713-1.014,1.052,1.052,0,0,1,.366-.066,1.08,1.08,0,0,1,.829.387l24.974,29.838a1.081,1.081,0,0,1-.633,1.755l-8.9,1.651,3.471,8.884a1.1,1.1,0,0,1-.039.847,1.083,1.083,0,0,1-.64.558l-6.346,2.061A1.1,1.1,0,0,1,1299.262,1256.324Zm-3.745-12.366a1.089,1.089,0,0,1,.393.074,1.075,1.075,0,0,1,.62.634l3.428,9.343,4.368-1.544-3.5-9.02a1.084,1.084,0,0,1,.817-1.44l8.409-1.56-22.308-26.364.218,33.81,7.066-3.817A1.075,1.075,0,0,1,1295.517,1243.958Z" transform="translate(-1285.799 -1210.291)" fill="#0000df"/>
  </g>
  <g id="Group_1120" data-name="Group 1120" transform="translate(14.189 0)">
    <path id="Path_1093" data-name="Path 1093" d="M1286.878,1153.517a1.08,1.08,0,0,1-1.079-1.079v-5.693a1.08,1.08,0,0,1,2.16,0v5.693A1.081,1.081,0,0,1,1286.878,1153.517Z" transform="translate(-1285.799 -1145.666)" fill="#0000df"/>
  </g>
  <g id="Group_1121" data-name="Group 1121" transform="translate(0 10.308)">
    <path id="Path_1094" data-name="Path 1094" d="M1230.83,1194.237a1.058,1.058,0,0,1-.335-.052l-5.415-1.76a1.08,1.08,0,1,1,.669-2.053l5.413,1.76a1.079,1.079,0,0,1-.332,2.1Z" transform="translate(-1224.335 -1190.319)" fill="#0000df"/>
  </g>
  <g id="Group_1122" data-name="Group 1122" transform="translate(5.42 22.383)">
    <path id="Path_1095" data-name="Path 1095" d="M1248.894,1249.391a1.078,1.078,0,0,1-.873-1.714l3.345-4.606a1.079,1.079,0,1,1,1.745,1.269l-3.345,4.605A1.075,1.075,0,0,1,1248.894,1249.391Z" transform="translate(-1247.814 -1242.627)" fill="#0000df"/>
  </g>
  <g id="Group_1123" data-name="Group 1123" transform="translate(14.189 24.145)">
    <path id="Path_1096" data-name="Path 1096" d="M1286.878,1258.112a1.08,1.08,0,0,1-1.079-1.079v-5.693a1.08,1.08,0,0,1,2.16,0v5.693A1.081,1.081,0,0,1,1286.878,1258.112Z" transform="translate(-1285.799 -1250.261)" fill="#0000df"/>
  </g>
  <g id="Group_1124" data-name="Group 1124" transform="translate(22.962 10.308)">
    <path id="Path_1097" data-name="Path 1097" d="M1324.884,1194.237a1.078,1.078,0,0,1-.332-2.1l5.413-1.76a1.09,1.09,0,0,1,.335-.053,1.08,1.08,0,0,1,.334,2.106l-5.415,1.76A1.057,1.057,0,0,1,1324.884,1194.237Z" transform="translate(-1323.804 -1190.319)" fill="#0000df"/>
  </g>
</svg>
