<svg xmlns="http://www.w3.org/2000/svg" width="47.966" height="35.88" viewBox="0 0 47.966 35.88">
  <g id="Group_3576" data-name="Group 3576" transform="translate(-464.424 -1693.138)">
    <g id="Group_3574" data-name="Group 3574" transform="translate(480.042 1693.288)">
      <path id="Path_3423" data-name="Path 3423" d="M541.223,1719.769a1.4,1.4,0,0,1-.994-.413l-3.568-3.569H519.806a3.911,3.911,0,0,1-3.907-3.907V1697.2a3.911,3.911,0,0,1,3.907-3.907h24.385a3.911,3.911,0,0,1,3.907,3.907v14.684a3.911,3.911,0,0,1-3.907,3.907h-1.558v2.573a1.411,1.411,0,0,1-1.41,1.409Zm-21.417-25.217a2.646,2.646,0,0,0-2.643,2.643v14.684a2.646,2.646,0,0,0,2.643,2.644h17.117a.632.632,0,0,1,.447.185l3.753,3.754a.145.145,0,0,0,.247-.1v-3.205a.632.632,0,0,1,.632-.632h2.189a2.646,2.646,0,0,0,2.643-2.644V1697.2a2.646,2.646,0,0,0-2.643-2.643Z" transform="translate(-515.899 -1693.288)" fill="#0000df" stroke="#0000df" stroke-width="0.3"/>
    </g>
    <g id="Group_3575" data-name="Group 3575" transform="translate(464.574 1702.386)">
      <path id="Path_3424" data-name="Path 3424" d="M471.448,1749.96a1.411,1.411,0,0,1-1.41-1.409v-2.573h-1.558a3.912,3.912,0,0,1-3.907-3.907v-14.684a3.911,3.911,0,0,1,3.907-3.907h11.738a.632.632,0,0,1,0,1.264H468.481a2.646,2.646,0,0,0-2.644,2.643v14.684a2.646,2.646,0,0,0,2.644,2.644h2.19a.632.632,0,0,1,.632.632v3.205a.145.145,0,0,0,.247.1l3.753-3.754a.632.632,0,0,1,.447-.185h17.117a2.646,2.646,0,0,0,2.643-2.644v-5.35a.632.632,0,0,1,1.264,0v5.35a3.912,3.912,0,0,1-3.907,3.907H476.011l-3.568,3.569A1.4,1.4,0,0,1,471.448,1749.96Z" transform="translate(-464.574 -1723.479)" fill="#0000df" stroke="#0000df" stroke-width="0.3"/>
    </g>
  </g>
</svg>
