<svg xmlns="http://www.w3.org/2000/svg" width="142.018" height="41.898" viewBox="0 0 142.018 41.898"><g transform="translate(0)"><path d="M6238.063-1921.624a2.753,2.753,0,0,0-2.75,2.75,2.753,2.753,0,0,0,2.75,2.75,2.754,2.754,0,0,0,2.75-2.75A2.753,2.753,0,0,0,6238.063-1921.624Z" transform="translate(-6166.55 1946.4)"/><path d="M6785.253-1920.827a2.792,2.792,0,0,0-.808,1.865l4.283-1.985a2.427,2.427,0,0,0-1.717-.678A2.506,2.506,0,0,0,6785.253-1920.827Z" transform="translate(-6693.146 1946.4)"/><path d="M7414.842-1849.942c-.2,0-1.974.041-1.974,1.446a1.08,1.08,0,0,0,.376.865,1.4,1.4,0,0,0,1.054.307,4.032,4.032,0,0,0,2.6-2A5.059,5.059,0,0,0,7414.842-1849.942Z" transform="translate(-7295.776 1877.66)"/><path d="M7096.493-2029.653h-3.146v4.575l3.146-.032a2.274,2.274,0,0,0,2.271-2.271A2.274,2.274,0,0,0,7096.493-2029.653Z" transform="translate(-6989.37 2049.996)"/><path d="M6000.255-1921.624a2.753,2.753,0,0,0-2.75,2.75,2.753,2.753,0,0,0,2.75,2.75,2.754,2.754,0,0,0,2.75-2.75A2.753,2.753,0,0,0,6000.255-1921.624Z" transform="translate(-5938.503 1946.4)"/><path d="M6327.334-2317.914a2.528,2.528,0,0,0,2.525-2.525,2.528,2.528,0,0,0-2.525-2.525,2.528,2.528,0,0,0-2.525,2.525A2.528,2.528,0,0,0,6327.334-2317.914Z" transform="translate(-6252.374 2331.269)"/><path d="M4693.318-2525.3H4568.475a8.588,8.588,0,0,0-8.587,8.588v24.723a8.588,8.588,0,0,0,8.587,8.588h124.843a8.588,8.588,0,0,0,8.588-8.588v-24.723A8.588,8.588,0,0,0,4693.318-2525.3Zm-54.184,7.479.009,0H4640l3.25,5.178v-5.178h.793v6.556h-.865l-3.249-5.176v5.176h-.794Zm-4.285.031a3.323,3.323,0,0,1,3.318,3.319,3.323,3.323,0,0,1-3.318,3.319,3.323,3.323,0,0,1-3.319-3.319A3.323,3.323,0,0,1,4634.849-2517.794Zm-12.062-.034h.793v6.556h-.793Zm-11.964-.028h3.523v.793h-2.729v2.091h2.472v.793h-2.472v2.091h2.729v.794h-3.523Zm-4.26,0a3.374,3.374,0,0,1,2.261.868l-.531.59a2.58,2.58,0,0,0-1.73-.664,2.59,2.59,0,0,0-2.587,2.587,2.59,2.59,0,0,0,2.587,2.587,2.362,2.362,0,0,0,2.372-2.08h-2.375v-.794h3.2v.4a3.3,3.3,0,0,1-.918,2.327,3.144,3.144,0,0,1-2.274.944,3.384,3.384,0,0,1-3.38-3.381A3.384,3.384,0,0,1,4606.563-2517.856Zm-18.473,18.185-.233.13-.232.131-.232.131-.233.131-.233.13-.232.131-.232.131-.233.131-.233.131-.232.13-.233.131-.232.131-.233.131-.233.13-.232.131-.233.131-.233.131-.232.13-.232.131-.232.131-.233.131-.233.131-.232.13-.232.131-.232.131-.233.131-.232.131-.232.13-.233.131-.232.13-.233.131-.232.13-.233.131-.233.131-.232.131-.232.131-.232.13-.233.131-.233.13-.232.131-.233.13-.233.131-.232.131-.232.13-.232.131-.233.131-.233.131-.232.13-.232.131-.232.13-.233.131-.232.13-.232.131-.233.131-.232.131-.233.131-.232.13-.232.131-.232.131-.233.131-.233.13-.232.131-.233.131-.233.131-.232.13-.233.131-.15.084c-.027.015-.055.029-.083.043a1.5,1.5,0,0,1-.232.09,1.49,1.49,0,0,1-.233.048,1.428,1.428,0,0,1-.232.009,1.48,1.48,0,0,1-.233-.028,1.506,1.506,0,0,1-.233-.068,1.52,1.52,0,0,1-.232-.112,1.494,1.494,0,0,1-.232-.17,1.457,1.457,0,0,1-.491-1.1v-24.025a1.478,1.478,0,0,1,.052-.394,1.464,1.464,0,0,1,.146-.349,1.482,1.482,0,0,1,.184-.249,1.487,1.487,0,0,1,.206-.187l.035-.026a1.48,1.48,0,0,1,1.056-.261,1.482,1.482,0,0,1,.523.177l.21.118.683.384.683.383.684.383.683.384.684.383.683.384.683.383.683.383.683.383.683.383.683.383.684.384.683.383.683.383.683.384.683.383.684.383.683.383.683.383.684.383.683.384.684.383.683.383.112.063.219.123.219.123.219.123.219.123.219.123.219.123.219.123.219.123.219.123.219.123.219.123.218.123.219.123.219.123.218.123.219.123.219.123.219.123.219.123.219.123.219.123.219.123.219.123.219.123.121.068c.034.019.066.039.1.06a1.475,1.475,0,0,1,.219.177,1.443,1.443,0,0,1,.219.274,1.492,1.492,0,0,1,0,1.554,1.452,1.452,0,0,1-.219.275,1.491,1.491,0,0,1-.219.177c-.032.021-.064.041-.1.06l-.121.068-.219.123-.219.123-.219.123-.219.123-.219.123-.219.123-.219.123-.219.123-.219.123-.218.123-.219.123-.219.123-.218.123-.219.123-.219.123-.219.123-.219.123-.219.123-.219.123-.219.123-.219.123-.219.123-.219.123-.219.123-.219.123-.077.043Zm28.373-.321a6.738,6.738,0,0,1-1.874,4.747,6.418,6.418,0,0,1-4.642,1.926,6.9,6.9,0,0,1-6.9-6.9,6.9,6.9,0,0,1,6.9-6.9,6.881,6.881,0,0,1,4.612,1.77l-1.144,1.27a5.176,5.176,0,0,0-3.469-1.331,5.192,5.192,0,0,0-5.186,5.186,5.192,5.192,0,0,0,5.186,5.186,4.728,4.728,0,0,0,4.741-4.109h-4.748v-1.709h6.522Zm-1.1-17.07v-.793h4.2v.793h-1.7v5.791h-.793v-5.791Zm6.28,23.743a4.464,4.464,0,0,1-4.459-4.459,4.464,4.464,0,0,1,4.459-4.459,4.464,4.464,0,0,1,4.459,4.459A4.464,4.464,0,0,1,4621.64-2493.319Zm3.018-23.743v-.793h4.195v.793h-1.7v5.791h-.794v-5.791Zm6.743,23.743a4.464,4.464,0,0,1-4.459-4.459,4.464,4.464,0,0,1,4.459-4.459,4.464,4.464,0,0,1,4.459,4.459A4.464,4.464,0,0,1,4631.4-2493.319Zm14.048-4.459v4.029a4.439,4.439,0,0,1-4.408,4.459,4.391,4.391,0,0,1-3.9-2.388l1.517-.788a2.689,2.689,0,0,0,2.387,1.466,2.728,2.728,0,0,0,2.7-2.75v-.521a4.44,4.44,0,0,1-2.75.951,4.464,4.464,0,0,1-4.459-4.459,4.464,4.464,0,0,1,4.459-4.459,4.44,4.44,0,0,1,2.75.951v-.633h1.709Zm2.908,4.142h-1.709v-12.992h1.709Zm5.58-1.391a2.75,2.75,0,0,0,2.281-1.213l1.417.957a4.458,4.458,0,0,1-3.7,1.966,4.465,4.465,0,0,1-4.46-4.459,4.492,4.492,0,0,1,1.294-3.145,4.222,4.222,0,0,1,2.982-1.314,4.251,4.251,0,0,1,3.783,2.305l.444.8-6.3,2.92A2.751,2.751,0,0,0,4653.937-2495.028Zm13.078-3.682-3.149.032v5.041h-1.709v-13.035h4.854a3.985,3.985,0,0,1,3.98,3.981A3.985,3.985,0,0,1,4667.015-2498.71Zm6.8,5.073H4672.1v-12.992h1.709Zm9.144,0h-1.709v-1.389a5.027,5.027,0,0,1-2.562,1.745,2.78,2.78,0,0,1-.445.035,3.128,3.128,0,0,1-1.992-.728,2.792,2.792,0,0,1-.978-2.168c0-1.858,1.515-3.155,3.683-3.155a5.942,5.942,0,0,1,2.252.527,2.314,2.314,0,0,0-2.269-1.876A2.307,2.307,0,0,0,4677-2499.6l-1.429-.938a4.012,4.012,0,0,1,3.362-1.816,4.024,4.024,0,0,1,4.02,4.02Zm3.609,3.8h-1.718l-.125-.055,1.885-4.272-3.726-8.2h1.877l2.773,6.105,2.694-6.105h1.868Z" transform="translate(-4559.888 2525.305)"/><path d="M6471.686-1921.624a2.753,2.753,0,0,0-2.75,2.75,2.754,2.754,0,0,0,2.75,2.75,2.753,2.753,0,0,0,2.75-2.75A2.753,2.753,0,0,0,6471.686-1921.624Z" transform="translate(-6390.584 1946.4)"/><path d="M4831.344-2340.716l.486-.843a1.482,1.482,0,0,0-1.055.261l.366.373Z" transform="translate(-4819.657 2349.113)" fill="#00db6c"/><path d="M4844.637-2340.4l.232.237.336.344.651-1.128-.21-.118a1.489,1.489,0,0,0-.523-.177Z" transform="translate(-4832.951 2348.796)" fill="#00dc6c"/><path d="M4858.5-2332.915l.1.1.436.445.034.034.765-1.326-.683-.383Z" transform="translate(-4846.245 2341.893)" fill="#00dd6c"/><path d="M4872.362-2323.377l.4.411.167.17.879-1.524-.683-.383Z" transform="translate(-4859.538 2332.936)" fill="#00de6c"/><path d="M4886.225-2313.839l.269.275.3.306.994-1.721-.683-.383Z" transform="translate(-4872.832 2323.979)" fill="#00df6b"/><path d="M4900.087-2304.3l.137.139.433.442,1.108-1.919-.684-.383Z" transform="translate(-4886.125 2315.022)" fill="#00e06b"/><path d="M4913.95-2294.762l0,0,.436.445.13.133,1.222-2.117-.683-.383Z" transform="translate(-4899.419 2306.065)" fill="#00e16b"/><path d="M4927.813-2285.224l.306.312.263.269,1.336-2.314-.683-.383Z" transform="translate(-4912.712 2297.108)" fill="#00e26b"/><path d="M4941.675-2275.686l.173.177.4.4,1.451-2.512-.683-.383Z" transform="translate(-4926.006 2288.151)" fill="#00e36b"/><path d="M4955.538-2266.148l.04.041.436.445.094.1,1.564-2.71-.683-.384Z" transform="translate(-4939.3 2279.194)" fill="#00e46b"/><path d="M4969.4-2256.61l.342.35.226.231,1.679-2.908-.683-.383Z" transform="translate(-4952.594 2270.237)" fill="#00e56a"/><path d="M4983.263-2247.072l.209.214.359.367,1.793-3.106-.683-.383Z" transform="translate(-4965.887 2261.279)" fill="#00e66a"/><path d="M4997.125-2237.533l.077.078.436.445.057.058,1.907-3.3-.683-.383Z" transform="translate(-4979.18 2252.323)" fill="#00e86a"/><path d="M5010.988-2228l.379.388.189.193,2.022-3.5-.684-.383Z" transform="translate(-4992.474 2243.365)" fill="#00e96a"/><path d="M5024.85-2218.457l.246.251.323.329,2.136-3.7-.684-.383Z" transform="translate(-5005.768 2234.408)" fill="#00ea6a"/><path d="M5038.713-2208.919l.113.116.436.445.02.02,2.25-3.9-.683-.383Z" transform="translate(-5019.062 2225.451)" fill="#00eb6a"/><path d="M5052.575-2199.381l.416.425.153.156,2.364-4.094-.683-.383Z" transform="translate(-5032.354 2216.494)" fill="#00ec69"/><path d="M5066.438-2189.842l.283.289.286.292,2.478-4.292-.683-.383Z" transform="translate(-5045.648 2207.537)" fill="#00ed69"/><path d="M5080.3-2180.3l.149.153.419.428,2.593-4.49-.684-.383Z" transform="translate(-5058.942 2198.58)" fill="#00ee69"/><path d="M5094.163-2170.766l.017.017.436.446.117.118,2.706-4.688-.683-.383Z" transform="translate(-5072.236 2189.623)" fill="#00ef69"/><path d="M5108.025-2161.228l.32.327.249.254,2.82-4.886-.683-.383Z" transform="translate(-5085.529 2180.666)" fill="#00f069"/><path d="M5121.888-2151.69l.187.191.382.39,2.935-5.083-.683-.383Z" transform="translate(-5098.823 2171.709)" fill="#00f169"/><path d="M5135.75-2142.152l.054.055.436.445.011.011.218-.217.036-.035,2.863-4.959-.683-.384Z" transform="translate(-5112.116 2162.752)" fill="#00f268"/><path d="M5154.142-2132.936l.183-.182.219-.217.219-.217.219-.217.219-.217.219-.217.219-.217.219-.217.219-.217.18-.179,1.432-2.48-.683-.383Z" transform="translate(-5129.753 2153.795)" fill="#00f368"/><path d="M5205.668-2126.074l.038-.038.219-.217.219-.217.219-.217.219-.217.219-.217.219-.217.219-.217.219-.217.219-.217.107-.106-.683-.383Z" transform="translate(-5179.165 2144.838)" fill="#00f468"/><path d="M4815.6-1731.983v.486a1.459,1.459,0,0,0,.491,1.1l.064-.063Z" transform="translate(-4805.102 1764.543)" fill="#42e5ff"/><path d="M4816.151-1748.04l.168-.167.033-.032-.756-2.076v.752Z" transform="translate(-4805.102 1782.123)" fill="#42e5ff"/><path d="M4816.352-1765.819l.2-.2h0l-.957-2.629v.752Z" transform="translate(-4805.102 1799.702)" fill="#42e5ff"/><path d="M4816.553-1783.6l.2-.2-1.158-3.182v.752Z" transform="translate(-4805.102 1817.283)" fill="#42e5ff"/><path d="M4816.754-1801.378l.03-.03.171-.169-1.359-3.735v.752Z" transform="translate(-4805.102 1834.862)" fill="#41e5ff"/><path d="M4816.956-1819.157l.062-.062.139-.138-1.561-4.288v.752Z" transform="translate(-4805.102 1852.442)" fill="#41e4ff"/><path d="M4817.157-1836.937l.094-.093.107-.107-1.762-4.841v.752Z" transform="translate(-4805.102 1870.022)" fill="#41e4ff"/><path d="M4817.358-1854.716l.125-.124.077-.076-1.963-5.394v.752Z" transform="translate(-4805.102 1887.603)" fill="#41e4ff"/><path d="M4817.56-1872.5l.156-.155.045-.044-2.165-5.947v.752Z" transform="translate(-4805.102 1905.182)" fill="#40e4ff"/><path d="M4817.761-1890.275l.188-.186.014-.013-2.366-6.5v.752Z" transform="translate(-4805.102 1922.763)" fill="#40e3ff"/><path d="M4817.962-1908.055l.2-.2-2.567-7.052v.752Z" transform="translate(-4805.102 1940.342)" fill="#3fe3fe"/><path d="M4818.163-1925.834l.018-.018.183-.182-2.768-7.605v.752Z" transform="translate(-4805.102 1957.922)" fill="#3fe3fe"/><path d="M4818.364-1943.614l.05-.049.152-.151-2.97-8.158v.752Z" transform="translate(-4805.102 1975.502)" fill="#3ee2fe"/><path d="M4818.566-1961.393l.08-.08.121-.12-3.17-8.711v.752Z" transform="translate(-4805.102 1993.082)" fill="#3ee2fe"/><path d="M4818.767-1979.172l.112-.111.089-.088-3.372-9.264v.752Z" transform="translate(-4805.102 2010.662)" fill="#3de2fe"/><path d="M4818.968-1996.952l.144-.142.058-.057-3.573-9.817v.752Z" transform="translate(-4805.102 2028.242)" fill="#3de1fe"/><path d="M4819.169-2014.732l.175-.173.026-.026-3.774-10.37v.752Z" transform="translate(-4805.102 2045.822)" fill="#3ce1fe"/><path d="M4819.371-2032.511l.2-.2-3.976-10.923v.752Z" transform="translate(-4805.102 2063.402)" fill="#3ce0fe"/><path d="M4819.572-2050.29l0-.005.2-.194-4.177-11.476v.752Z" transform="translate(-4805.102 2080.982)" fill="#3be0fd"/><path d="M4819.773-2068.07l.037-.036.165-.163L4815.6-2080.3v.752Z" transform="translate(-4805.102 2098.562)" fill="#3adffd"/><path d="M4819.974-2085.849l.068-.067.134-.132-4.58-12.582v.752Z" transform="translate(-4805.102 2116.142)" fill="#39dffd"/><path d="M4820.176-2103.629l.1-.1.1-.1-4.781-13.135v.752Z" transform="translate(-4805.102 2133.722)" fill="#39defd"/><path d="M4820.377-2121.409l.131-.129.07-.07L4815.6-2135.3v.752Z" transform="translate(-4805.102 2151.302)" fill="#38ddfd"/><path d="M4820.578-2139.188l.162-.161.039-.039-5.183-14.24v.752Z" transform="translate(-4805.102 2168.882)" fill="#37ddfd"/><path d="M4820.779-2156.968l.193-.192.008-.008-5.384-14.793v.752Z" transform="translate(-4805.102 2186.462)" fill="#36dcfc"/><path d="M4820.98-2174.747l.2-.2-5.585-15.346v.752Z" transform="translate(-4805.102 2204.042)" fill="#35dcfc"/><path d="M4821.182-2192.526l.024-.024.177-.176-5.787-15.9v.752Z" transform="translate(-4805.102 2221.622)" fill="#34dbfc"/><path d="M4821.383-2210.306l.055-.054.146-.145-5.988-16.452v.752Z" transform="translate(-4805.102 2239.202)" fill="#34dafc"/><path d="M4821.584-2228.085l.087-.086.115-.114-6.189-17v.752Z" transform="translate(-4805.102 2256.782)" fill="#33dafc"/><path d="M4821.786-2245.865l.118-.117.083-.083-6.391-17.558v.752Z" transform="translate(-4805.102 2274.362)" fill="#32d9fb"/><path d="M4821.987-2263.644l.149-.148.052-.051-6.592-18.111v.752Z" transform="translate(-4805.102 2291.942)" fill="#31d8fb"/><path d="M4822.188-2281.424l.181-.179.021-.021-6.793-18.664v.752Z" transform="translate(-4805.102 2309.522)" fill="#30d7fb"/><path d="M4822.389-2295.836l.2-.2-6.942-19.073a1.5,1.5,0,0,0-.052.394v.215Z" transform="translate(-4805.102 2323.735)" fill="#2fd7fb"/><path d="M4823.815-2304.2l.012-.011.19-.189-7-19.222a1.459,1.459,0,0,0-.146.349Z" transform="translate(-4806.327 2331.901)" fill="#2ed6fa"/><path d="M4827.443-2310.22l.042-.042.159-.157-7.014-19.272a1.48,1.48,0,0,0-.184.249Z" transform="translate(-4809.753 2337.72)" fill="#2dd5fa"/><path d="M4831.926-2314.781l.074-.073.128-.126-7.01-19.259a1.493,1.493,0,0,0-.206.187Z" transform="translate(-4814.034 2342.082)" fill="#2bd4fa"/><path d="M4836.938-2315.59l.105-.1.1-.1-6.811-18.713-.365-.373-.035.026Z" transform="translate(-4818.845 2342.691)" fill="#2ad3fa"/><path d="M4840.116-2325.335l-.232-.237-.2-.208,6.811,18.713.137-.135.064-.064Z" transform="translate(-4828.197 2333.969)" fill="#29d3f9"/><path d="M4850.736-2314.487l-.1-.1-.336-.344,6.576,18.068.168-.167.034-.033Z" transform="translate(-4838.381 2323.566)" fill="#28d2f9"/><path d="M4861.357-2303.639l-.436-.445,6.341,17.423.2-.2,0,0Z" transform="translate(-4848.566 2313.164)" fill="#27d1f9"/><path d="M4871.978-2292.791l-.4-.411-.034-.034,6.107,16.778.2-.2Z" transform="translate(-4858.751 2302.761)" fill="#26d0f9"/><path d="M4882.6-2281.943l-.269-.275-.167-.17,5.873,16.134.029-.03.172-.17Z" transform="translate(-4868.936 2292.358)" fill="#24cff8"/><path d="M4893.22-2271.1l-.137-.139-.3-.306,5.637,15.489.062-.06.14-.139Z" transform="translate(-4879.122 2281.955)" fill="#23cef8"/><path d="M4903.84-2260.247l0,0-.433-.442,5.4,14.844.092-.091.109-.108Z" transform="translate(-4889.307 2271.553)" fill="#22cdf8"/><path d="M4914.46-2249.4l-.436-.445,5.168,14.2.125-.123.077-.077Z" transform="translate(-4899.49 2261.15)" fill="#20ccf7"/><path d="M4925.082-2238.552l-.306-.312-.13-.133,4.934,13.555.154-.154.047-.046Z" transform="translate(-4909.676 2250.747)" fill="#1fcbf7"/><path d="M4935.7-2227.7l-.174-.177-.263-.269,4.7,12.91.187-.185.015-.014Z" transform="translate(-4919.861 2240.344)" fill="#1ecaf7"/><path d="M4946.323-2216.855l-.04-.041-.4-.4,4.464,12.265.2-.2Z" transform="translate(-4930.045 2229.942)" fill="#1cc9f6"/><path d="M4956.944-2206.007l-.436-.445,4.229,11.621.017-.016.185-.183Z" transform="translate(-4940.23 2219.539)" fill="#1bc8f6"/><path d="M4967.565-2195.159l-.344-.35-.093-.1,4,10.976.048-.048.153-.152Z" transform="translate(-4950.415 2209.136)" fill="#1ac7f6"/><path d="M4978.186-2184.312l-.21-.214-.226-.231,3.76,10.331.08-.079.122-.121Z" transform="translate(-4960.601 2198.733)" fill="#18c6f5"/><path d="M4988.807-2173.463l-.077-.078-.359-.367,3.526,9.687.11-.11.09-.09Z" transform="translate(-4970.785 2188.331)" fill="#17c5f5"/><path d="M4999.428-2162.615l-.437-.445,3.291,9.042.143-.141.059-.058Z" transform="translate(-4980.97 2177.928)" fill="#15c4f5"/><path d="M5010.048-2151.767l-.38-.388-.056-.057,3.057,8.4.173-.172.027-.027Z" transform="translate(-4991.155 2167.525)" fill="#14c3f4"/><path d="M5020.669-2140.919l-.247-.252-.189-.194,2.822,7.752.2-.2Z" transform="translate(-5001.34 2157.122)" fill="#12c1f4"/><path d="M5031.29-2130.072l-.114-.116-.322-.329,2.587,7.108,0,0,.2-.2Z" transform="translate(-5011.524 2146.719)" fill="#11c0f4"/><path d="M5041.91-2119.223l-.436-.445,2.352,6.463.036-.035.166-.164Z" transform="translate(-5021.709 2136.317)" fill="#0fbff3"/><path d="M5052.531-2108.375l-.416-.425-.02-.02,2.118,5.818.067-.066.134-.133Z" transform="translate(-5031.895 2125.914)" fill="#0dbef3"/><path d="M5063.152-2097.528l-.283-.289-.153-.156,1.883,5.174.1-.1.1-.1Z" transform="translate(-5042.079 2115.511)" fill="#0cbdf3"/><path d="M5073.772-2086.679l-.15-.153-.286-.292,1.648,4.529.129-.129.072-.071Z" transform="translate(-5052.264 2105.108)" fill="#0abcf2"/><path d="M5084.394-2075.832l-.017-.018-.419-.428,1.414,3.884.161-.16.04-.04Z" transform="translate(-5062.449 2094.706)" fill="#09baf2"/><path d="M5095.014-2064.984l-.436-.445,1.179,3.24.192-.191.009-.009Z" transform="translate(-5072.634 2084.303)" fill="#07b9f2"/><path d="M5105.635-2054.135l-.319-.327-.116-.118.944,2.595.2-.2Z" transform="translate(-5082.819 2073.9)" fill="#05b8f1"/><path d="M5116.256-2043.287l-.187-.191-.249-.254.71,1.95.022-.022.179-.177Z" transform="translate(-5093.004 2063.497)" fill="#03b7f1"/><path d="M5126.877-2032.439l-.054-.055-.382-.39.475,1.305.054-.053.147-.146Z" transform="translate(-5103.189 2053.094)" fill="#02b5f0"/><path d="M5137.5-2021.591l-.436-.445.241.661.085-.085.116-.115Z" transform="translate(-5113.374 2042.692)" fill="#00b4f0"/><path d="M5147.688-2011.173l0-.005-.011-.011Z" transform="translate(-5123.558 2032.289)" fill="#00b4f0"/><path d="M4827.788-1698.946l-.169.167-.064.063a1.512,1.512,0,0,0,.233.17Z" transform="translate(-4816.569 1732.861)" fill="#ed004b"/><path d="M4833.457-1704.565l-.2.2-.033.032v.4a1.484,1.484,0,0,0,.233.112Z" transform="translate(-4822.006 1738.25)" fill="#ed004a"/><path d="M4839.125-1710.185l-.03.03-.2.2h0v.744a1.473,1.473,0,0,0,.232.068Z" transform="translate(-4827.442 1743.639)" fill="#ed0049"/><path d="M4844.794-1715.8l-.062.061-.17.169v1.042a1.453,1.453,0,0,0,.232.028Z" transform="translate(-4832.878 1749.027)" fill="#ee0048"/><path d="M4850.463-1721.423l-.093.093-.14.138v1.3a1.421,1.421,0,0,0,.233-.009Z" transform="translate(-4838.314 1754.416)" fill="#ee0047"/><path d="M4856.131-1727.042l-.125.124-.108.107v1.522a1.472,1.472,0,0,0,.232-.048Z" transform="translate(-4843.75 1759.804)" fill="#ee0046"/><path d="M4861.8-1732.661l-.156.155-.077.076v1.705a1.479,1.479,0,0,0,.232-.09Z" transform="translate(-4849.187 1765.193)" fill="#ee0045"/><path d="M4867.469-1738.28l-.188.186-.045.045v1.846c.027-.013.055-.027.082-.042l.151-.085Z" transform="translate(-4854.622 1770.581)" fill="#ef0044"/><path d="M4873.138-1743.9l-.018.018-.2.2-.014.013v1.949l.233-.131Z" transform="translate(-4860.058 1775.97)" fill="#ef0043"/><path d="M4878.806-1749.519l-.049.049-.183.182v2.049l.232-.131Z" transform="translate(-4865.495 1781.359)" fill="#ef0042"/><path d="M4884.475-1755.138l-.081.08-.152.151v2.15l.233-.131Z" transform="translate(-4870.93 1786.747)" fill="#ef0041"/><path d="M4890.144-1760.757l-.112.111-.121.12v2.25l.233-.131Z" transform="translate(-4876.367 1792.136)" fill="#f00040"/><path d="M4895.813-1766.376l-.143.142-.09.089v2.349l.233-.13Z" transform="translate(-4881.803 1797.524)" fill="#f0003f"/><path d="M4901.481-1772l-.175.173-.058.057v2.45l.233-.13Z" transform="translate(-4887.239 1802.913)" fill="#f0003e"/><path d="M4907.15-1777.615l0,.005-.2.2-.026.026v2.55l.233-.13Z" transform="translate(-4892.675 1808.302)" fill="#f0003d"/><path d="M4912.819-1783.234l-.037.036-.2.195v2.65l.233-.131Z" transform="translate(-4898.111 1813.69)" fill="#f1003c"/><path d="M4918.487-1788.853l-.068.067-.165.163v2.75l.233-.131Z" transform="translate(-4903.547 1819.078)" fill="#f1003b"/><path d="M4924.156-1794.472l-.1.1-.133.132v2.85l.232-.13Z" transform="translate(-4908.983 1824.467)" fill="#f1003a"/><path d="M4929.824-1800.092l-.13.13-.1.1v2.95l.232-.13Z" transform="translate(-4914.419 1829.856)" fill="#f10039"/><path d="M4935.494-1805.711l-.162.161-.07.07v3.05l.232-.13Z" transform="translate(-4919.855 1835.244)" fill="#f20038"/><path d="M4941.161-1811.33l-.193.192-.039.039v3.15l.232-.131Z" transform="translate(-4925.291 1840.633)" fill="#f20037"/><path d="M4946.831-1816.949l-.023.023-.2.2-.007.008v3.25l.232-.131Z" transform="translate(-4930.728 1846.021)" fill="#f20036"/><path d="M4952.5-1822.568l-.055.054-.177.176v3.35l.232-.13Z" transform="translate(-4936.164 1851.41)" fill="#f20035"/><path d="M4958.168-1828.187l-.086.086-.146.145v3.45l.233-.13Z" transform="translate(-4941.599 1856.799)" fill="#f30034"/><path d="M4963.836-1833.807l-.118.117-.115.114v3.55l.232-.13Z" transform="translate(-4947.035 1862.187)" fill="#f30033"/><path d="M4969.505-1839.426l-.149.148-.083.083v3.65l.232-.131Z" transform="translate(-4952.471 1867.576)" fill="#f30032"/><path d="M4975.174-1845.045l-.181.179-.052.052v3.75l.233-.131Z" transform="translate(-4957.907 1872.964)" fill="#f30031"/><path d="M4980.843-1850.664l-.011.011-.2.2-.021.02v3.85l.233-.13Z" transform="translate(-4963.343 1878.353)" fill="#f40030"/><path d="M4986.512-1856.283l-.042.042-.19.189v3.951l.233-.13Z" transform="translate(-4968.779 1883.741)" fill="#f4002f"/><path d="M4992.18-1861.9l-.074.073-.159.158v4.051l.232-.13Z" transform="translate(-4974.215 1889.13)" fill="#f4002e"/><path d="M4997.849-1867.522l-.1.1-.127.126v4.151l.232-.131Z" transform="translate(-4979.651 1894.518)" fill="#f4002d"/><path d="M5003.518-1873.141l-.137.135-.1.1v4.251l.233-.13Z" transform="translate(-4985.087 1899.907)" fill="#f5002c"/><path d="M5009.187-1878.76l-.168.166-.064.064v4.351l.233-.131Z" transform="translate(-4990.523 1905.296)" fill="#f5002b"/><path d="M5014.855-1884.379l-.2.2-.033.033v4.451l.232-.131Z" transform="translate(-4995.959 1910.684)" fill="#f5002a"/><path d="M5020.524-1890l-.03.029-.2.2v4.553l.233-.13Z" transform="translate(-5001.396 1916.073)" fill="#f50029"/><path d="M5026.192-1895.618l-.061.06-.172.17v4.651l.232-.131Z" transform="translate(-5006.832 1921.461)" fill="#f60028"/><path d="M5031.861-1901.237l-.093.092-.14.139v4.751l.232-.13Z" transform="translate(-5012.268 1926.85)" fill="#f60027"/><path d="M5037.529-1906.856l-.123.123-.109.108v4.851l.232-.131Z" transform="translate(-5017.704 1932.238)" fill="#f60026"/><path d="M5043.2-1912.475l-.155.154-.078.077v4.951l.232-.131Z" transform="translate(-5023.14 1937.627)" fill="#f60024"/><path d="M5048.867-1918.094l-.186.185-.046.046v5.051l.232-.131Z" transform="translate(-5028.576 1943.015)" fill="#f60023"/><path d="M5054.535-1923.714l-.017.017-.2.2-.015.015v5.151l.232-.13Z" transform="translate(-5034.011 1948.404)" fill="#f70022"/><path d="M5060.2-1929.333l-.048.048-.185.183v5.252l.232-.131Z" transform="translate(-5039.448 1953.793)" fill="#f70021"/><path d="M5065.874-1934.952l-.08.079-.153.152v5.352l.233-.131Z" transform="translate(-5044.884 1959.181)" fill="#f70020"/><path d="M5071.542-1940.571l-.111.11-.122.121v5.452l.233-.131Z" transform="translate(-5050.32 1964.57)" fill="#f7001f"/><path d="M5077.21-1946.19l-.142.141-.09.09v5.552l.232-.131Z" transform="translate(-5055.756 1969.958)" fill="#f8001e"/><path d="M5082.879-1951.809l-.174.172-.059.058v5.652l.233-.131Z" transform="translate(-5061.192 1975.347)" fill="#f8001d"/><path d="M5088.548-1957.429l0,0-.2.2-.027.027v5.752l.233-.13Z" transform="translate(-5066.628 1980.735)" fill="#f8001c"/><path d="M5094.216-1963.048l-.035.035-.2.2v5.852l.232-.13Z" transform="translate(-5072.064 1986.124)" fill="#f8001b"/><path d="M5099.886-1968.667l-.067.066-.166.165v5.952l.233-.131Z" transform="translate(-5077.5 1991.512)" fill="#f9001a"/><path d="M5105.554-1974.286l-.1.1-.134.133V-1968l.233-.131Z" transform="translate(-5082.936 1996.901)" fill="#f90019"/><path d="M5111.223-1979.905l-.129.129-.1.1v6.152l.232-.131Z" transform="translate(-5088.372 2002.29)" fill="#f90018"/><path d="M5116.891-1985.525l-.161.16-.071.071v6.252l.232-.131Z" transform="translate(-5093.808 2007.678)" fill="#f90017"/><path d="M5122.56-1991.144l-.192.191-.04.04v6.352l.232-.13Z" transform="translate(-5099.244 2013.067)" fill="#fa0016"/><path d="M5128.229-1996.763l-.023.022-.2.2-.008.009v6.452l.233-.131Z" transform="translate(-5104.68 2018.455)" fill="#fa0015"/><path d="M5133.9-2002.382l-.054.054-.179.177v6.552l.232-.131Z" transform="translate(-5110.116 2023.844)" fill="#fa0014"/><path d="M5139.566-2008l-.085.085-.147.146v6.652l.233-.13Z" transform="translate(-5115.552 2029.232)" fill="#fa0013"/><path d="M5145.235-2010.805l-.112-.114,0,0-.115.115v6.752l.232-.131Z" transform="translate(-5120.989 2032.031)" fill="#fb0012"/><path d="M5150.9-2007.9l-.125-.128-.107-.109v6.627l.232-.13Z" transform="translate(-5126.425 2029.362)" fill="#fb0011"/><path d="M5156.573-2002.109l-.14-.142-.093-.1v6.259l.232-.131Z" transform="translate(-5131.861 2023.809)" fill="#fb0010"/><path d="M5162.241-1996.319l-.153-.156-.079-.081v5.891l.232-.131Z" transform="translate(-5137.297 2018.257)" fill="#fb000f"/><path d="M5167.91-1990.529l-.167-.171-.065-.067v5.523l.232-.131Z" transform="translate(-5142.733 2012.705)" fill="#fc000e"/><path d="M5173.579-1984.739l-.181-.185-.052-.053v5.155l.233-.13Z" transform="translate(-5148.168 2007.152)" fill="#fc000d"/><path d="M5179.248-1978.949l-.2-.2-.038-.039v4.786l.233-.131Z" transform="translate(-5153.605 2001.6)" fill="#fc000c"/><path d="M5184.916-1973.159l-.208-.213-.024-.025v4.418l.233-.13Z" transform="translate(-5159.041 1996.048)" fill="#fc000b"/><path d="M5190.584-1967.369l0,0-.219-.224-.01-.01v4.05l.232-.13Z" transform="translate(-5164.477 1990.495)" fill="#fd000a"/><path d="M5196.253-1961.579l-.018-.018-.215-.22v3.682l.233-.131Z" transform="translate(-5169.913 1984.943)" fill="#fd0009"/><path d="M5201.922-1955.789l-.032-.032-.2-.206v3.314l.233-.131Z" transform="translate(-5175.349 1979.391)" fill="#fd0008"/><path d="M5207.591-1950l-.045-.046-.187-.192v2.945l.233-.13Z" transform="translate(-5180.785 1973.839)" fill="#fd0007"/><path d="M5213.26-1944.209l-.06-.06-.173-.177v2.577l.233-.13Z" transform="translate(-5186.221 1968.286)" fill="#fe0006"/><path d="M5218.928-1938.419l-.073-.074-.16-.163v2.209l.233-.131Z" transform="translate(-5191.657 1962.734)" fill="#fe0005"/><path d="M5224.6-1932.629l-.086-.088-.146-.149v1.841l.232-.13Z" transform="translate(-5197.093 1957.182)" fill="#fe0004"/><path d="M5230.265-1926.839l-.1-.1-.132-.135v1.473l.232-.13Z" transform="translate(-5202.529 1951.629)" fill="#fe0003"/><path d="M5235.935-1921.049l-.114-.117-.118-.121v1.1l.232-.13Z" transform="translate(-5207.966 1946.077)" fill="#ff0002"/><path d="M5241.6-1915.26l-.128-.131-.1-.107v.736l.232-.13Z" transform="translate(-5213.401 1940.525)" fill="#ff0001"/><path d="M5247.038-1909.707v.368l.233-.13-.142-.145Z" transform="translate(-5218.836 1934.972)" fill="red"/><path d="M5148.165-2016.2l-.219.217.112.114.107.109Z" transform="translate(-5123.811 2037.099)" fill="#ffae00"/><path d="M5153.5-2021.49l-.183.182-.036.035v.44l.125.128.093.1Z" transform="translate(-5128.924 2042.167)" fill="#ffb000"/><path d="M5158.828-2026.775l-.219.217v.881l.14.143.079.081Z" transform="translate(-5134.037 2047.236)" fill="#ffb200"/><path d="M5164.16-2032.06l-.219.217v1.321l.153.157.066.067Z" transform="translate(-5139.15 2052.304)" fill="#ffb400"/><path d="M5169.491-2037.345l-.218.217v1.762l.167.171.051.053Z" transform="translate(-5144.263 2057.372)" fill="#ffb600"/><path d="M5174.824-2042.631l-.219.217v2.2l.181.185.038.039Z" transform="translate(-5149.376 2062.441)" fill="#ffb700"/><path d="M5180.155-2047.916l-.219.217v2.643l.195.2.024.024Z" transform="translate(-5154.489 2067.509)" fill="#ffb900"/><path d="M5185.487-2053.2l-.219.217v3.083l.208.213.01.01Z" transform="translate(-5159.602 2072.577)" fill="#fb0"/><path d="M5190.819-2058.486l-.219.217v3.523l.219.223Z" transform="translate(-5164.715 2077.645)" fill="#ffbd00"/><path d="M5196.15-2063.771l-.219.217v3.964l0,0,.215.22Z" transform="translate(-5169.828 2082.714)" fill="#ffbe00"/><path d="M5201.482-2069.057l-.038.038-.181.179v4.4l.017.018.2.206Z" transform="translate(-5174.941 2087.782)" fill="#ffc000"/><path d="M5206.814-2074.342l-.219.217v4.845l.031.032.188.192Z" transform="translate(-5180.053 2092.85)" fill="#ffc200"/><path d="M5212.146-2079.627l-.218.217v5.285l.045.046.173.177Z" transform="translate(-5185.167 2097.918)" fill="#ffc300"/><path d="M5217.478-2084.912l-.219.217v5.725l.059.06.16.163Z" transform="translate(-5190.279 2102.987)" fill="#ffc500"/><path d="M5222.81-2090.2l-.219.217v6.166l.073.074.146.149Z" transform="translate(-5195.393 2108.055)" fill="#ffc600"/><path d="M5228.141-2095.483l-.219.217v6.606l.086.088.132.135Z" transform="translate(-5200.505 2113.124)" fill="#ffc700"/><path d="M5233.473-2100.768l-.219.217v7.047l.1.1.118.121Z" transform="translate(-5205.619 2118.192)" fill="#ffc900"/><path d="M5238.8-2106.053l-.219.217v7.487l.114.117.1.107Z" transform="translate(-5210.731 2123.26)" fill="#ffca00"/><path d="M5243.918-2103.194l.128.131.091.093v-8.368l-.219.217Z" transform="translate(-5215.844 2128.328)" fill="#ffcb00"/><path d="M5249.468-2116.624l-.219.217v8.368l.142.145.077-.043Z" transform="translate(-5220.957 2133.397)" fill="#ffcd00"/><path d="M5254.581-2110.421l.219-.123v-8.608l-.112-.062-.107.106Z" transform="translate(-5226.07 2135.881)" fill="#ffce00"/><path d="M5260.132-2109.2v-8.362l-.219-.123v8.608Z" transform="translate(-5231.183 2134.418)" fill="#ffcf00"/><path d="M5265.463-2106.457v-8.117l-.219-.123v8.362Z" transform="translate(-5236.296 2131.549)" fill="#ffd000"/><path d="M5270.8-2103.711v-7.871l-.219-.123v8.116Z" transform="translate(-5241.409 2128.679)" fill="#ffd100"/><path d="M5276.127-2100.964v-7.625l-.219-.123v7.871Z" transform="translate(-5246.521 2125.81)" fill="#ffd200"/><path d="M5281.459-2098.218v-7.38l-.219-.123v7.625Z" transform="translate(-5251.635 2122.941)" fill="#ffd300"/><path d="M5286.791-2095.472v-7.134l-.219-.123v7.38Z" transform="translate(-5256.748 2120.072)" fill="#ffd400"/><path d="M5292.123-2092.725v-6.888l-.219-.123v7.134Z" transform="translate(-5261.861 2117.202)" fill="#ffd500"/><path d="M5297.454-2089.979v-6.643l-.219-.123v6.888Z" transform="translate(-5266.974 2114.333)" fill="#ffd600"/><path d="M5302.786-2087.232v-6.4l-.219-.123v6.643Z" transform="translate(-5272.087 2111.464)" fill="gold"/><path d="M5308.118-2084.486v-6.152l-.219-.123v6.4Z" transform="translate(-5277.199 2108.594)" fill="#ffd800"/><path d="M5313.449-2081.739v-5.906l-.219-.123v6.152Z" transform="translate(-5282.312 2105.726)" fill="#ffd900"/><path d="M5318.781-2078.993v-5.66l-.219-.123v5.906Z" transform="translate(-5287.425 2102.856)" fill="#ffd900"/><path d="M5324.112-2076.246v-5.415l-.219-.123v5.66Z" transform="translate(-5292.538 2099.987)" fill="#ffda00"/><path d="M5329.445-2073.5v-5.169l-.219-.123v5.415Z" transform="translate(-5297.652 2097.118)" fill="#ffdb00"/><path d="M5334.776-2070.754v-4.924l-.219-.123v5.169Z" transform="translate(-5302.764 2094.249)" fill="#ffdb00"/><path d="M5340.108-2068.007v-4.678l-.219-.123v4.924Z" transform="translate(-5307.877 2091.379)" fill="#ffdc00"/><path d="M5345.44-2065.261v-4.432l-.219-.123v4.678Z" transform="translate(-5312.99 2088.51)" fill="#ffdc00"/><path d="M5350.772-2062.514v-4.187l-.219-.123v4.432Z" transform="translate(-5318.104 2085.641)" fill="#fd0"/><path d="M5356.1-2059.768v-3.941l-.219-.123v4.187Z" transform="translate(-5323.216 2082.772)" fill="#fd0"/><path d="M5361.436-2057.021v-3.7l-.219-.123v3.941Z" transform="translate(-5328.329 2079.902)" fill="#ffde00"/><path d="M5366.767-2054.275v-3.45l-.218-.123v3.7Z" transform="translate(-5333.442 2077.033)" fill="#ffde00"/><path d="M5372.1-2051.529v-3.2l-.219-.123v3.45Z" transform="translate(-5338.554 2074.164)" fill="#ffde00"/><path d="M5377.431-2048.782v-2.959l-.219-.123v3.2Z" transform="translate(-5343.667 2071.295)" fill="#ffde00"/><path d="M5382.762-2046.036v-2.714l-.219-.123v2.959Z" transform="translate(-5348.78 2068.426)" fill="#ffdf00"/><path d="M5388-2043.234c.034-.019.066-.039.1-.06v-2.457c-.032-.021-.064-.041-.1-.06l-.121-.068v2.713Z" transform="translate(-5353.893 2065.557)" fill="#ffdf00"/><path d="M5393.426-2040.481v-2.1a1.465,1.465,0,0,0-.219-.177v2.457A1.457,1.457,0,0,0,5393.426-2040.481Z" transform="translate(-5359.006 2062.566)" fill="#ffdf00"/><path d="M5398.758-2036.617v-1.554a1.437,1.437,0,0,0-.219-.274v2.1A1.429,1.429,0,0,0,5398.758-2036.617Z" transform="translate(-5364.12 2058.428)" fill="#ffdf00"/><path d="M5403.872-2031.758v1.554A1.494,1.494,0,0,0,5403.872-2031.758Z" transform="translate(-5369.233 2052.014)" fill="#ffdf00"/><path d="M5618.491-2073.992h4.748a4.728,4.728,0,0,1-4.741,4.109,5.192,5.192,0,0,1-5.186-5.186,5.192,5.192,0,0,1,5.186-5.186,5.174,5.174,0,0,1,3.469,1.331l1.144-1.27a6.879,6.879,0,0,0-4.612-1.77,6.9,6.9,0,0,0-6.9,6.9,6.9,6.9,0,0,0,6.9,6.9,6.421,6.421,0,0,0,4.642-1.926,6.736,6.736,0,0,0,1.874-4.747v-.855h-6.522Z" transform="translate(-5568.438 2100.16)" fill="#fff"/><path d="M5960.317-1963.271a4.465,4.465,0,0,0-4.46,4.459,4.465,4.465,0,0,0,4.46,4.459,4.465,4.465,0,0,0,4.459-4.459A4.465,4.465,0,0,0,5960.317-1963.271Zm0,7.21a2.753,2.753,0,0,1-2.75-2.75,2.753,2.753,0,0,1,2.75-2.75,2.753,2.753,0,0,1,2.75,2.75A2.753,2.753,0,0,1,5960.317-1956.061Z" transform="translate(-5898.564 1986.338)" fill="#fff"/><path d="M6198.125-1963.271a4.465,4.465,0,0,0-4.459,4.459,4.465,4.465,0,0,0,4.459,4.459,4.465,4.465,0,0,0,4.459-4.459A4.465,4.465,0,0,0,6198.125-1963.271Zm0,7.21a2.753,2.753,0,0,1-2.75-2.75,2.753,2.753,0,0,1,2.75-2.75,2.753,2.753,0,0,1,2.75,2.75A2.753,2.753,0,0,1,6198.125-1956.061Z" transform="translate(-6126.613 1986.338)" fill="#fff"/><path d="M7382-1966.1a4.01,4.01,0,0,0-3.362,1.816l1.429.938a2.306,2.306,0,0,1,1.933-1.045,2.314,2.314,0,0,1,2.269,1.876,9.034,9.034,0,0,1,1.369.725l-.757,1.14.284-.428-.283.428.889-.611a6.843,6.843,0,0,1-1.46,2.488v1.389h1.709v-4.7A4.024,4.024,0,0,0,7382-1966.1Z" transform="translate(-7262.947 1989.048)" fill="#fff"/><path d="M6750.825-1960.966a4.252,4.252,0,0,0-3.783-2.305,4.22,4.22,0,0,0-2.982,1.314,4.491,4.491,0,0,0-1.294,3.145,4.465,4.465,0,0,0,4.46,4.459,4.458,4.458,0,0,0,3.7-1.966l-1.417-.957a2.75,2.75,0,0,1-2.281,1.213,2.748,2.748,0,0,1-2.257-1.181l6.3-2.92Zm-6.349,2.067a2.8,2.8,0,0,1,.808-1.866,2.507,2.507,0,0,1,1.758-.8,2.425,2.425,0,0,1,1.717.678Z" transform="translate(-6653.176 1986.338)" fill="#fff"/><path d="M6431.75-1956.061a2.753,2.753,0,0,1-2.75-2.75,2.754,2.754,0,0,1,2.75-2.75,2.753,2.753,0,0,1,2.75,2.75v-3.508a4.438,4.438,0,0,0-2.75-.951,4.465,4.465,0,0,0-4.459,4.459,4.465,4.465,0,0,0,4.459,4.459,4.437,4.437,0,0,0,2.75-.951v-3.508A2.753,2.753,0,0,1,6431.75-1956.061Z" transform="translate(-6350.648 1986.338)" fill="#fff"/><path d="M6448.679-1851.109v.521a2.727,2.727,0,0,1-2.7,2.75,2.688,2.688,0,0,1-2.387-1.466l-1.518.788a4.392,4.392,0,0,0,3.9,2.388,4.438,4.438,0,0,0,4.407-4.459v-4.029A4.454,4.454,0,0,1,6448.679-1851.109Z" transform="translate(-6364.828 1882.143)" fill="#fff"/><path d="M6602.954-1954.877a4.454,4.454,0,0,1,1.709,3.508v-4.141h-1.709Z" transform="translate(-6519.103 1978.896)" fill="#fff"/><path d="M6602.954-1940.092v7.016a4.454,4.454,0,0,0,1.709-3.508A4.454,4.454,0,0,0,6602.954-1940.092Z" transform="translate(-6519.103 1964.11)" fill="#fff"/><rect width="1.709" height="12.992" transform="translate(86.76 18.676)" fill="#fff"/><rect width="1.709" height="12.992" transform="translate(112.216 18.676)" fill="#fff"/><path d="M7056.556-2071.3H7051.7v13.035h1.709v-5.041l3.149-.032a3.986,3.986,0,0,0,3.977-3.981A3.986,3.986,0,0,0,7056.556-2071.3Zm0,6.252-3.145.032v-4.575h3.145a2.275,2.275,0,0,1,2.272,2.272A2.275,2.275,0,0,1,7056.556-2065.047Z" transform="translate(-6949.434 2089.932)" fill="#fff"/><path d="M7377.157-1891.062a5.945,5.945,0,0,0-2.252-.527c-2.169,0-3.683,1.3-3.683,3.155a2.793,2.793,0,0,0,.978,2.168,3.129,3.129,0,0,0,1.992.728,2.78,2.78,0,0,0,.445-.035,5.03,5.03,0,0,0,2.563-1.745v-3.308A2.277,2.277,0,0,0,7377.157-1891.062Zm-2.795,3.8a1.4,1.4,0,0,1-1.055-.308,1.082,1.082,0,0,1-.375-.865c0-1.405,1.771-1.446,1.974-1.446a5.053,5.053,0,0,1,2.06.616A4.031,4.031,0,0,1,7374.362-1887.261Z" transform="translate(-7255.84 1917.598)" fill="#fff"/><path d="M7516.446-1876.881l.283-.428-.284.428.757-1.14a9.067,9.067,0,0,0-1.369-.725,2.28,2.28,0,0,1,.042.435V-1875a6.833,6.833,0,0,0,1.46-2.488Z" transform="translate(-7394.515 1905.282)" fill="#fff"/><path d="M7561.325-1960.368l-2.773-6.105h-1.877l3.726,8.2-1.885,4.273.125.055h1.718l5.529-12.53h-1.868Z" transform="translate(-7433.68 1989.409)" fill="#fff"/><path d="M5618.151-2337.048a3.145,3.145,0,0,0,2.275-.944,3.3,3.3,0,0,0,.918-2.327v-.4h-3.2v.794h2.375a2.362,2.362,0,0,1-2.372,2.081,2.59,2.59,0,0,1-2.587-2.587,2.59,2.59,0,0,1,2.587-2.587,2.581,2.581,0,0,1,1.73.664l.531-.59a3.375,3.375,0,0,0-2.262-.868,3.384,3.384,0,0,0-3.38,3.381A3.384,3.384,0,0,0,5618.151-2337.048Z" transform="translate(-5571.477 2351.258)" fill="#fff"/><path d="M5804.455-2338.041h-2.729v-2.091h-.4v-.793h.4v-2.091h2.729v-.794h-3.522v6.562h3.522Z" transform="translate(-5749.998 2351.259)" fill="#fff"/><rect width="2.472" height="0.794" transform="translate(51.728 10.333)" fill="#fff"/><rect width="0.397" height="0.794" transform="translate(51.331 10.333)" fill="#fff"/><path d="M5914-2343.413v.4h1.7v-.794h-4.2v.794h1.7v-.4Z" transform="translate(-5856.029 2351.259)" fill="#fff"/><rect width="0.794" height="5.791" transform="translate(57.174 8.243)" fill="#fff"/><rect width="0.794" height="0.397" transform="translate(57.174 7.846)" fill="#fff"/><path d="M6140.529-2343.413v.4h1.7v-.794h-4.2v.794h1.7v-.4Z" transform="translate(-6073.264 2351.259)" fill="#fff"/><rect width="0.794" height="5.791" transform="translate(66.471 8.243)" fill="#fff"/><rect width="0.794" height="0.397" transform="translate(66.471 7.846)" fill="#fff"/><rect width="0.794" height="6.556" transform="translate(62.898 7.477)" fill="#fff"/><path d="M6308.792-2335.663a3.322,3.322,0,0,0,3.319-3.319,3.322,3.322,0,0,0-3.319-3.319,3.322,3.322,0,0,0-3.318,3.319A3.322,3.322,0,0,0,6308.792-2335.663Zm0-5.844a2.528,2.528,0,0,1,2.525,2.525,2.528,2.528,0,0,1-2.525,2.525,2.527,2.527,0,0,1-2.525-2.525A2.527,2.527,0,0,1,6308.792-2341.506Z" transform="translate(-6233.831 2349.811)" fill="#fff"/><path d="M6491.548-2341.745l3.249,5.176h.866v-6.556h-.794v5.178l-3.25-5.178h-.855l-.009,0v6.554h.793Z" transform="translate(-6411.508 2350.603)" fill="#fff"/></g></svg>