<svg xmlns="http://www.w3.org/2000/svg" width="47.794" height="38.711" viewBox="0 0 47.794 38.711">
  <g id="Group_3556" data-name="Group 3556" transform="translate(0.15 0.15)">
    <g id="Group_3546" data-name="Group 3546" transform="translate(0.002 0)">
      <path id="Path_3401" data-name="Path 3401" d="M216.14,1126.562h-46.2a.648.648,0,0,1-.648-.648V1088.8a.648.648,0,0,1,.648-.648h46.2a.648.648,0,0,1,.648.648v37.115A.648.648,0,0,1,216.14,1126.562Zm-45.549-1.3h44.9v-35.819h-44.9Z" transform="translate(-169.295 -1088.151)" fill="#0000df" stroke="#0000df" stroke-width="0.3"/>
    </g>
    <g id="Group_3547" data-name="Group 3547" transform="translate(0 0.001)">
      <path id="Path_3402" data-name="Path 3402" d="M216.134,1096.626h-46.2a.648.648,0,0,1-.648-.648V1088.8a.648.648,0,0,1,.648-.648h46.2a.648.648,0,0,1,.648.648v7.176A.648.648,0,0,1,216.134,1096.626Zm-45.549-1.3h44.9v-5.88h-44.9Z" transform="translate(-169.289 -1088.154)" fill="#0000df" stroke="#0000df" stroke-width="0.3"/>
    </g>
    <g id="Group_3551" data-name="Group 3551" transform="translate(3.581 3.588)">
      <g id="Group_3548" data-name="Group 3548">
        <path id="Path_3403" data-name="Path 3403" d="M181.52,1101.059a.838.838,0,0,1-.126-.013.691.691,0,0,1-.12-.039.577.577,0,0,1-.11-.058.819.819,0,0,1-.1-.081.64.64,0,0,1-.188-.457.832.832,0,0,1,.01-.129.855.855,0,0,1,.039-.12.771.771,0,0,1,.058-.113.852.852,0,0,1,.081-.1.624.624,0,0,1,.1-.081.615.615,0,0,1,.11-.058.9.9,0,0,1,.12-.039.653.653,0,0,1,.586.178.587.587,0,0,1,.081.1.714.714,0,0,1,.058.113.859.859,0,0,1,.039.12.833.833,0,0,1,.01.129.637.637,0,0,1-.4.6A.648.648,0,0,1,181.52,1101.059Z" transform="translate(-180.875 -1099.76)" fill="#0000df" stroke="#0000df" stroke-width="0.3"/>
      </g>
      <g id="Group_3549" data-name="Group 3549" transform="translate(5.698 0.008)">
        <path id="Path_3404" data-name="Path 3404" d="M199.96,1101.077a.652.652,0,0,1-.648-.648.832.832,0,0,1,.013-.13.851.851,0,0,1,.039-.12.776.776,0,0,1,.058-.114.618.618,0,0,1,.081-.1.668.668,0,0,1,.917,0,.618.618,0,0,1,.081.1.747.747,0,0,1,.058.114.533.533,0,0,1,.036.12.557.557,0,0,1,.013.13.654.654,0,0,1-.648.648Z" transform="translate(-199.312 -1099.787)" fill="#0000df" stroke="#0000df" stroke-width="0.3"/>
      </g>
      <g id="Group_3550" data-name="Group 3550" transform="translate(2.851 0.008)">
        <path id="Path_3405" data-name="Path 3405" d="M190.744,1101.077a.646.646,0,0,1-.645-.648.839.839,0,0,1,.01-.13.814.814,0,0,1,.039-.12.747.747,0,0,1,.058-.114.618.618,0,0,1,.081-.1.668.668,0,0,1,.917,0,.6.6,0,0,1,.081.1.776.776,0,0,1,.058.114.894.894,0,0,1,.039.12.839.839,0,0,1,.01.13.638.638,0,0,1-.4.6A.648.648,0,0,1,190.744,1101.077Z" transform="translate(-190.099 -1099.787)" fill="#0000df" stroke="#0000df" stroke-width="0.3"/>
      </g>
    </g>
    <g id="Group_3552" data-name="Group 3552" transform="translate(5.719 13.169)">
      <path id="Path_3406" data-name="Path 3406" d="M206.685,1132.055H188.441a.648.648,0,0,1,0-1.3h18.244a.648.648,0,1,1,0,1.3Z" transform="translate(-187.793 -1130.759)" fill="#0000df" stroke="#0000df" stroke-width="0.3"/>
    </g>
    <g id="Group_3553" data-name="Group 3553" transform="translate(5.719 18.87)">
      <path id="Path_3407" data-name="Path 3407" d="M222.72,1150.5H188.441a.648.648,0,0,1,0-1.3H222.72a.648.648,0,1,1,0,1.3Z" transform="translate(-187.793 -1149.205)" fill="#0000df" stroke="#0000df" stroke-width="0.3"/>
    </g>
    <g id="Group_3554" data-name="Group 3554" transform="translate(5.719 24.572)">
      <path id="Path_3408" data-name="Path 3408" d="M222.72,1168.948H188.441a.648.648,0,0,1,0-1.3H222.72a.648.648,0,1,1,0,1.3Z" transform="translate(-187.793 -1167.652)" fill="#0000df" stroke="#0000df" stroke-width="0.3"/>
    </g>
    <g id="Group_3555" data-name="Group 3555" transform="translate(17.122 30.273)">
      <path id="Path_3409" data-name="Path 3409" d="M248.21,1187.394H225.334a.648.648,0,1,1,0-1.3H248.21a.648.648,0,1,1,0,1.3Z" transform="translate(-224.686 -1186.098)" fill="#0000df" stroke="#0000df" stroke-width="0.3"/>
    </g>
  </g>
</svg>
