<svg xmlns="http://www.w3.org/2000/svg" width="37.352" height="46.882" viewBox="0 0 37.352 46.882">
  <g id="Group_3573" data-name="Group 3573" transform="translate(0.15 0.15)">
    <g id="Group_3561" data-name="Group 3561" transform="translate(0 29.733)">
      <g id="Group_3558" data-name="Group 3558">
        <path id="Path_3411" data-name="Path 3411" d="M1977.409,1488.719h-3.533a1.668,1.668,0,0,1-1.666-1.666v-13.516a1.668,1.668,0,0,1,1.666-1.666h3.533a1.668,1.668,0,0,1,1.666,1.666v13.516A1.668,1.668,0,0,1,1977.409,1488.719Zm-3.533-15.535a.353.353,0,0,0-.353.353v13.516a.353.353,0,0,0,.353.353h3.533a.353.353,0,0,0,.353-.353v-13.516a.353.353,0,0,0-.353-.353Z" transform="translate(-1972.21 -1471.87)" fill="#0000df" stroke="#0000df" stroke-width="0.3"/>
      </g>
      <g id="Group_3559" data-name="Group 3559" transform="translate(5.552 1.287)">
        <path id="Path_3412" data-name="Path 3412" d="M1999.643,1482.644a.657.657,0,0,1-.194-1.284l3.978-1.235a.658.658,0,0,1,.286-.023l7.442,1.046a.807.807,0,0,0,.906-.624l.063-.28a.814.814,0,0,0-.605-.971l-8.325-1.966-12.485,2.307a.657.657,0,1,1-.239-1.292l12.621-2.332a.649.649,0,0,1,.27.007l8.459,2a2.132,2.132,0,0,1,1.584,2.54l-.064.28a2.139,2.139,0,0,1-2.369,1.634l-7.3-1.026-3.838,1.191A.649.649,0,0,1,1999.643,1482.644Z" transform="translate(-1989.933 -1475.98)" fill="#0000df" stroke="#0000df" stroke-width="0.3"/>
      </g>
      <g id="Group_3560" data-name="Group 3560" transform="translate(5.552 6.45)">
        <path id="Path_3413" data-name="Path 3413" d="M1999.129,1499.813a73.7,73.7,0,0,1-8.616-.507.657.657,0,0,1,.154-1.3,71.741,71.741,0,0,0,27.338-2.034l1.51-.411a.813.813,0,0,0,.172-1.5.822.822,0,0,0-.385-.1l-8.253-.188a.657.657,0,0,1,.015-1.313h.016l8.238.188h0a2.125,2.125,0,0,1,.542,4.176l-1.51.411A73.068,73.068,0,0,1,1999.129,1499.813Z" transform="translate(-1989.933 -1492.459)" fill="#0000df" stroke="#0000df" stroke-width="0.3"/>
      </g>
    </g>
    <g id="Group_3572" data-name="Group 3572" transform="translate(6.654 0)">
      <g id="Group_3564" data-name="Group 3564" transform="translate(5.468 5.669)">
        <g id="Group_3562" data-name="Group 3562">
          <path id="Path_3414" data-name="Path 3414" d="M2017.205,1415.208a2.879,2.879,0,0,1-2.887-2.786l-.011-.311a13.717,13.717,0,0,0-2.33-7.12,6.335,6.335,0,0,1-1.031-4.271,6.4,6.4,0,0,1,12.762.729,6.353,6.353,0,0,1-1.146,3.653,13.625,13.625,0,0,0-2.468,7.319A2.879,2.879,0,0,1,2017.205,1415.208Zm.107-18.846a5.273,5.273,0,0,0-.591.033,5.1,5.1,0,0,0-4.471,4.47,5.038,5.038,0,0,0,.818,3.4,15.026,15.026,0,0,1,2.551,7.8l.011.311a1.576,1.576,0,0,0,3.15,0,14.939,14.939,0,0,1,2.7-8.024,5.043,5.043,0,0,0,.91-2.9,5.1,5.1,0,0,0-1.7-3.792A5.03,5.03,0,0,0,2017.313,1396.362Z" transform="translate(-2010.904 -1395.051)" fill="#0000df" stroke="#0000df" stroke-width="0.3"/>
        </g>
        <g id="Group_3563" data-name="Group 3563" transform="translate(3.299 13.823)">
          <path id="Path_3415" data-name="Path 3415" d="M2024.454,1441.032a5.791,5.791,0,0,1-2.69-.63.657.657,0,0,1,.65-1.141,4.806,4.806,0,0,0,4.182-.025.657.657,0,0,1,.549,1.193A6.4,6.4,0,0,1,2024.454,1441.032Z" transform="translate(-2021.434 -1439.176)" fill="#0000df" stroke="#0000df" stroke-width="0.3"/>
        </g>
      </g>
      <g id="Group_3565" data-name="Group 3565" transform="translate(11.213)">
        <path id="Path_3416" data-name="Path 3416" d="M2029.9,1380.256a.657.657,0,0,1-.656-.657v-1.988a.657.657,0,0,1,1.313,0v1.988A.657.657,0,0,1,2029.9,1380.256Z" transform="translate(-2029.244 -1376.954)" fill="#0000df" stroke="#0000df" stroke-width="0.3"/>
      </g>
      <g id="Group_3566" data-name="Group 3566" transform="translate(3.894 2.664)">
        <path id="Path_3417" data-name="Path 3417" d="M2007.817,1388.293a.655.655,0,0,1-.5-.235l-1.278-1.523a.657.657,0,0,1,1.006-.844l1.278,1.523a.657.657,0,0,1-.5,1.078Z" transform="translate(-2005.882 -1385.457)" fill="#0000df" stroke="#0000df" stroke-width="0.3"/>
      </g>
      <g id="Group_3567" data-name="Group 3567" transform="translate(0 9.409)">
        <path id="Path_3418" data-name="Path 3418" d="M1996.066,1408.648a.691.691,0,0,1-.115-.01l-1.958-.345a.657.657,0,1,1,.228-1.293l1.958.345a.657.657,0,0,1-.113,1.3Z" transform="translate(-1993.45 -1406.99)" fill="#0000df" stroke="#0000df" stroke-width="0.3"/>
      </g>
      <g id="Group_3568" data-name="Group 3568" transform="translate(1.353 16.084)">
        <path id="Path_3419" data-name="Path 3419" d="M1998.425,1430.606a.657.657,0,0,1-.329-1.225l1.722-.994a.657.657,0,0,1,.657,1.138l-1.722.994A.65.65,0,0,1,1998.425,1430.606Z" transform="translate(-1997.768 -1428.298)" fill="#0000df" stroke="#0000df" stroke-width="0.3"/>
      </g>
      <g id="Group_3569" data-name="Group 3569" transform="translate(19.351 16.084)">
        <path id="Path_3420" data-name="Path 3420" d="M2057.6,1430.606a.652.652,0,0,1-.328-.088l-1.722-.994a.657.657,0,0,1,.657-1.138l1.722.994a.657.657,0,0,1-.329,1.225Z" transform="translate(-2055.224 -1428.298)" fill="#0000df" stroke="#0000df" stroke-width="0.3"/>
      </g>
      <g id="Group_3570" data-name="Group 3570" transform="translate(20.468 9.409)">
        <path id="Path_3421" data-name="Path 3421" d="M2059.443,1408.647a.656.656,0,0,1-.113-1.3l1.958-.346a.657.657,0,1,1,.228,1.293l-1.958.346A.676.676,0,0,1,2059.443,1408.647Z" transform="translate(-2058.787 -1406.989)" fill="#0000df" stroke="#0000df" stroke-width="0.3"/>
      </g>
      <g id="Group_3571" data-name="Group 3571" transform="translate(17.253 2.664)">
        <path id="Path_3422" data-name="Path 3422" d="M2049.183,1388.293a.656.656,0,0,1-.5-1.078l1.278-1.523a.657.657,0,1,1,1.006.844l-1.278,1.523A.655.655,0,0,1,2049.183,1388.293Z" transform="translate(-2048.527 -1385.457)" fill="#0000df" stroke="#0000df" stroke-width="0.3"/>
      </g>
    </g>
  </g>
</svg>
