<svg xmlns="http://www.w3.org/2000/svg" width="29.493" height="47.186" viewBox="0 0 29.493 47.186">
  <g id="Group_3545" data-name="Group 3545" transform="translate(0.15 0.15)">
    <g id="Group_3541" data-name="Group 3541" transform="translate(0 0)">
      <path id="Path_3397" data-name="Path 3397" d="M826.677,530.161H803.952a3.238,3.238,0,0,1-3.234-3.234V486.509a3.238,3.238,0,0,1,3.234-3.234h22.725a3.238,3.238,0,0,1,3.234,3.234v40.418A3.238,3.238,0,0,1,826.677,530.161Zm-22.725-45.374a1.724,1.724,0,0,0-1.722,1.722v40.418a1.724,1.724,0,0,0,1.722,1.722h22.725a1.724,1.724,0,0,0,1.722-1.722V486.509a1.724,1.724,0,0,0-1.722-1.722Z" transform="translate(-800.718 -483.275)" fill="#0000df" stroke="#0000df" stroke-width="0.3"/>
    </g>
    <g id="Group_3542" data-name="Group 3542" transform="translate(0 6.49)">
      <path id="Path_3398" data-name="Path 3398" d="M829.155,534.238H801.474a.756.756,0,0,1-.756-.756V502.028a.756.756,0,0,1,.756-.756h27.681a.756.756,0,0,1,.756.756v31.454A.756.756,0,0,1,829.155,534.238Zm-26.925-1.512H828.4V502.784H802.23Z" transform="translate(-800.718 -501.272)" fill="#0000df" stroke="#0000df" stroke-width="0.3"/>
    </g>
    <g id="Group_3543" data-name="Group 3543" transform="translate(11.293 3.269)">
      <path id="Path_3399" data-name="Path 3399" d="M837.885,493.853h-5.1a.756.756,0,0,1,0-1.512h5.1a.756.756,0,0,1,0,1.512Z" transform="translate(-832.034 -492.341)" fill="#0000df" stroke="#0000df" stroke-width="0.3"/>
    </g>
    <g id="Group_3544" data-name="Group 3544" transform="translate(13.423 41.765)">
      <path id="Path_3400" data-name="Path 3400" d="M839.531,600.6H838.7a.756.756,0,0,1,0-1.512h.836a.756.756,0,0,1,0,1.512Z" transform="translate(-837.94 -599.09)" fill="#0000df" stroke="#0000df" stroke-width="0.3"/>
    </g>
  </g>
</svg>
