<svg xmlns="http://www.w3.org/2000/svg" width="41.282" height="41.097" viewBox="0 0 41.282 41.097">
  <g id="Group_3582" data-name="Group 3582" transform="translate(0.154 0.15)">
    <g id="Group_3577" data-name="Group 3577" transform="translate(7.447 28.947)">
      <path id="Path_3425" data-name="Path 3425" d="M1094.724,589.383h-.026a.613.613,0,0,1-.587-.637l.436-10.625a.613.613,0,1,1,1.224.05l-.436,10.625A.613.613,0,0,1,1094.724,589.383Z" transform="translate(-1094.111 -577.533)" fill="#0000df" stroke="#0000df" stroke-width="0.3"/>
    </g>
    <g id="Group_3578" data-name="Group 3578" transform="translate(31.866 28.947)">
      <path id="Path_3426" data-name="Path 3426" d="M1178.715,589.382a.612.612,0,0,1-.612-.588l-.436-10.625a.613.613,0,1,1,1.224-.05l.436,10.625a.613.613,0,0,1-.587.637Z" transform="translate(-1177.667 -577.532)" fill="#0000df" stroke="#0000df" stroke-width="0.3"/>
    </g>
    <g id="Group_3579" data-name="Group 3579" transform="translate(0 19.731)">
      <path id="Path_3427" data-name="Path 3427" d="M1105.762,567.065H1072.47a3.839,3.839,0,0,1-3.819-4.25l1.247-11.557a6.124,6.124,0,0,1,6.088-5.258h9.88a.613.613,0,0,1,.609.682l-.093.822a3.489,3.489,0,0,0,.617,2.211,2.759,2.759,0,0,0,4.22,0,3.485,3.485,0,0,0,.617-2.211l-.093-.822a.613.613,0,0,1,.609-.682h9.9a6.118,6.118,0,0,1,6.084,5.231l1.25,11.581a3.841,3.841,0,0,1-3.819,4.253Zm-29.778-19.84a4.9,4.9,0,0,0-4.873,4.19l-1.243,11.531a2.614,2.614,0,0,0,2.6,2.894h33.293a2.616,2.616,0,0,0,2.6-2.9l-1.246-11.555a4.894,4.894,0,0,0-4.87-4.164h-9.212l.016.14a4.646,4.646,0,0,1-.9,3.142,3.985,3.985,0,0,1-6.088,0,4.648,4.648,0,0,1-.9-3.142l.016-.14Z" transform="translate(-1068.628 -545.999)" fill="#0000df" stroke="#0000df" stroke-width="0.3"/>
    </g>
    <g id="Group_3580" data-name="Group 3580" transform="translate(16.494 16.475)">
      <path id="Path_3428" data-name="Path 3428" d="M1129.052,544.031a3.979,3.979,0,0,1-3.959-4.429l.476-4.2a.612.612,0,0,1,.776-.52,6.986,6.986,0,0,0,1.912.272h1.59a6.986,6.986,0,0,0,1.912-.272.612.612,0,0,1,.776.52l.476,4.2a3.979,3.979,0,0,1-3.958,4.429Zm-2.343-7.8-.4,3.514a2.759,2.759,0,1,0,5.482,0h0l-.4-3.514a8.067,8.067,0,0,1-1.548.152h-1.59A8.067,8.067,0,0,1,1126.708,536.226Z" transform="translate(-1125.067 -534.857)" fill="#0000df" stroke="#0000df" stroke-width="0.3"/>
    </g>
    <g id="Group_3581" data-name="Group 3581" transform="translate(11.48 0)">
      <path id="Path_3429" data-name="Path 3429" d="M1117.7,496.479h-1.59a8.225,8.225,0,0,1-8.2-8.2v-2.889a6.911,6.911,0,0,1,6.9-6.9H1119a6.911,6.911,0,0,1,6.9,6.9v2.889a8.225,8.225,0,0,1-8.2,8.2Zm-2.889-16.771a5.685,5.685,0,0,0-5.678,5.678v2.889a7,7,0,0,0,6.978,6.978h1.59a7,7,0,0,0,6.978-6.978v-2.889a5.685,5.685,0,0,0-5.679-5.678Z" transform="translate(-1107.912 -478.483)" fill="#0000df" stroke="#0000df" stroke-width="0.3"/>
    </g>
  </g>
</svg>
