<svg xmlns="http://www.w3.org/2000/svg" width="48.267" height="38.482" viewBox="0 0 48.267 38.482">
  <g id="Group_3598" data-name="Group 3598" transform="translate(0.184 0.15)">
    <g id="Group_3595" data-name="Group 3595" transform="translate(0 0)">
      <g id="Group_3586" data-name="Group 3586" transform="translate(0.004 11.076)">
        <g id="Group_3583" data-name="Group 3583" transform="translate(4.141)">
          <path id="Path_3430" data-name="Path 3430" d="M2605.259,852.068h-38.226a.691.691,0,0,1-.691-.691V825.654a.691.691,0,1,1,1.383,0v25.032h36.844V825.654a.691.691,0,1,1,1.382,0v25.722A.691.691,0,0,1,2605.259,852.068Z" transform="translate(-2566.342 -824.963)" fill="#0000df" stroke="#0000df" stroke-width="0.3"/>
        </g>
        <g id="Group_3584" data-name="Group 3584" transform="translate(18.863 8.102)">
          <path id="Path_3431" data-name="Path 3431" d="M2620.472,868.542h-8.781a.691.691,0,0,1-.691-.691V850.23a.691.691,0,0,1,.691-.691h8.781a.691.691,0,0,1,.691.691v17.621A.691.691,0,0,1,2620.472,868.542Zm-8.09-1.382h7.4V850.921h-7.4Z" transform="translate(-2611 -849.539)" fill="#0000df" stroke="#0000df" stroke-width="0.3"/>
        </g>
        <g id="Group_3585" data-name="Group 3585" transform="translate(0 25.723)">
          <path id="Path_3432" data-name="Path 3432" d="M2600.979,904.371h-46.508a.691.691,0,0,1,0-1.382h46.508a.691.691,0,0,1,0,1.382Z" transform="translate(-2553.781 -902.989)" fill="#0000df" stroke="#0000df" stroke-width="0.3"/>
        </g>
      </g>
      <g id="Group_3594" data-name="Group 3594">
        <g id="Group_3587" data-name="Group 3587">
          <path id="Path_3433" data-name="Path 3433" d="M2557.421,803.827a3.643,3.643,0,0,1-3.033-5.659l4.318-6.494a.691.691,0,0,1,.575-.309h5.268a.691.691,0,0,1,.624.987l-4.462,9.395A3.659,3.659,0,0,1,2557.421,803.827Zm2.231-11.08-4.113,6.186a2.261,2.261,0,0,0,1.882,3.512,2.27,2.27,0,0,0,2.042-1.291l3.993-8.407Z" transform="translate(-2553.77 -791.365)" fill="#0000df" stroke="#0000df" stroke-width="0.3"/>
        </g>
        <g id="Group_3588" data-name="Group 3588" transform="translate(6.659)">
          <path id="Path_3434" data-name="Path 3434" d="M2577.818,803.827a3.846,3.846,0,0,1-3.474-5.5l3.122-6.571a.691.691,0,0,1,.624-.395h5.268a.691.691,0,0,1,.664.881l-2.5,8.789A3.862,3.862,0,0,1,2577.818,803.827Zm.708-11.08-2.934,6.177a2.464,2.464,0,1,0,4.6,1.732l2.254-7.909Z" transform="translate(-2573.969 -791.365)" fill="#0000df" stroke="#0000df" stroke-width="0.3"/>
        </g>
        <g id="Group_3589" data-name="Group 3589" transform="translate(13.221)">
          <path id="Path_3435" data-name="Path 3435" d="M2598.045,803.827h-.324a3.846,3.846,0,0,1-3.7-4.9l2.012-7.06a.691.691,0,0,1,.665-.5h5.268a.692.692,0,0,1,.688.756l-.781,8.223A3.83,3.83,0,0,1,2598.045,803.827Zm-.824-11.08-1.869,6.559a2.464,2.464,0,0,0,2.369,3.139h.324a2.454,2.454,0,0,0,2.452-2.231l.709-7.467Z" transform="translate(-2593.872 -791.365)" fill="#0000df" stroke="#0000df" stroke-width="0.3"/>
        </g>
        <g id="Group_3590" data-name="Group 3590" transform="translate(19.885)">
          <path id="Path_3436" data-name="Path 3436" d="M2618.369,803.827h-.435a3.847,3.847,0,0,1-3.828-4.21l.724-7.627a.691.691,0,0,1,.688-.626h5.268a.691.691,0,0,1,.688.626l.724,7.627a3.846,3.846,0,0,1-3.829,4.21Zm-2.223-11.08-.665,7a2.465,2.465,0,0,0,2.453,2.7h.435a2.464,2.464,0,0,0,2.453-2.7l-.665-7Z" transform="translate(-2614.088 -791.365)" fill="#0000df" stroke="#0000df" stroke-width="0.3"/>
        </g>
        <g id="Group_3591" data-name="Group 3591" transform="translate(25.891)">
          <path id="Path_3437" data-name="Path 3437" d="M2637.243,803.827h-.324a3.831,3.831,0,0,1-3.829-3.482l-.781-8.223a.691.691,0,0,1,.688-.756h5.267a.691.691,0,0,1,.665.5l2.012,7.06a3.847,3.847,0,0,1-3.7,4.9Zm-3.486-11.08.709,7.467a2.454,2.454,0,0,0,2.453,2.231h.324a2.464,2.464,0,0,0,2.369-3.139l-1.869-6.559Z" transform="translate(-2632.306 -791.365)" fill="#0000df" stroke="#0000df" stroke-width="0.3"/>
        </g>
        <g id="Group_3592" data-name="Group 3592" transform="translate(31.159)">
          <path id="Path_3438" data-name="Path 3438" d="M2654.515,803.827a3.863,3.863,0,0,1-3.7-2.792l-2.5-8.789a.691.691,0,0,1,.665-.881h5.268a.69.69,0,0,1,.624.395l3.121,6.571a3.846,3.846,0,0,1-3.474,5.5Zm-4.624-11.08,2.254,7.909a2.464,2.464,0,1,0,4.595-1.732l-2.934-6.177Z" transform="translate(-2648.285 -791.365)" fill="#0000df" stroke="#0000df" stroke-width="0.3"/>
        </g>
        <g id="Group_3593" data-name="Group 3593" transform="translate(36.427)">
          <path id="Path_3439" data-name="Path 3439" d="M2672.083,803.827a3.659,3.659,0,0,1-3.291-2.079l-4.462-9.395a.691.691,0,0,1,.624-.987h5.268a.69.69,0,0,1,.575.309l4.318,6.494a3.643,3.643,0,0,1-3.032,5.659Zm-6.036-11.08,3.993,8.407a2.27,2.27,0,0,0,2.042,1.291h0a2.261,2.261,0,0,0,1.882-3.512l-4.114-6.186Z" transform="translate(-2664.264 -791.365)" fill="#0000df" stroke="#0000df" stroke-width="0.3"/>
        </g>
      </g>
    </g>
    <g id="Group_3596" data-name="Group 3596" transform="translate(8.476 20.683)">
      <path id="Path_3440" data-name="Path 3440" d="M2586.157,861.472h-5.986a.691.691,0,0,1-.691-.691v-5.986a.691.691,0,0,1,.691-.691h5.986a.692.692,0,0,1,.691.691v5.986A.691.691,0,0,1,2586.157,861.472Zm-5.295-1.382h4.6v-4.6h-4.6Z" transform="translate(-2579.48 -854.103)" fill="#0000df" stroke="#0000df" stroke-width="0.3"/>
    </g>
    <g id="Group_3597" data-name="Group 3597" transform="translate(32.053 20.683)">
      <path id="Path_3441" data-name="Path 3441" d="M2657.674,861.472h-5.986a.691.691,0,0,1-.691-.691v-5.986a.692.692,0,0,1,.691-.691h5.986a.691.691,0,0,1,.691.691v5.986A.691.691,0,0,1,2657.674,861.472Zm-5.3-1.382h4.6v-4.6h-4.6Z" transform="translate(-2650.996 -854.103)" fill="#0000df" stroke="#0000df" stroke-width="0.3"/>
    </g>
  </g>
</svg>
