<svg xmlns="http://www.w3.org/2000/svg" width="33.853" height="33.851" viewBox="0 0 33.853 33.851">
  <g id="Group_3603" data-name="Group 3603" transform="translate(-217.653 -657.161)">
    <g id="Group_3601" data-name="Group 3601" transform="translate(217.803 657.311)">
      <g id="Group_3599" data-name="Group 3599" transform="translate(0 0)">
        <path id="Path_3442" data-name="Path 3442" d="M230.945,683.6a13.142,13.142,0,1,1,13.142-13.142A13.157,13.157,0,0,1,230.945,683.6Zm0-24.939a11.8,11.8,0,1,0,11.8,11.8A11.809,11.809,0,0,0,230.945,658.657Z" transform="translate(-217.803 -657.311)" fill="#0000df" stroke="#0000df" stroke-width="0.3"/>
      </g>
      <g id="Group_3600" data-name="Group 3600" transform="translate(20.09 20.089)">
        <path id="Path_3443" data-name="Path 3443" d="M368.3,810.351a2.531,2.531,0,0,1-1.8-.746l-8.914-8.912a.666.666,0,0,1-.2-.476.673.673,0,0,1,.2-.476l2.655-2.655a.673.673,0,0,1,.952,0L370.1,806a2.549,2.549,0,0,1-1.8,4.352Zm-9.343-10.08,8.491,8.383a1.206,1.206,0,0,0,.851.34h0a1.21,1.21,0,0,0,.853-.34,1.2,1.2,0,0,0,0-1.7l-8.436-8.436Z" transform="translate(-357.386 -796.889)" fill="#0000df" stroke="#0000df" stroke-width="0.3"/>
      </g>
    </g>
    <g id="Group_3602" data-name="Group 3602" transform="translate(222.284 661.792)">
      <path id="Path_3444" data-name="Path 3444" d="M249.61,697.78a.674.674,0,0,1-.673-.673,8.671,8.671,0,0,1,8.661-8.661.673.673,0,1,1,0,1.346,7.323,7.323,0,0,0-7.315,7.315A.674.674,0,0,1,249.61,697.78Z" transform="translate(-248.937 -688.445)" fill="#0000df" stroke="#0000df" stroke-width="0.3"/>
    </g>
  </g>
</svg>
