<?xml version="1.0" encoding="utf-8"?>
<!-- Generator: Adobe Illustrator 26.0.2, SVG Export Plug-In . SVG Version: 6.00 Build 0)  -->
<svg version="1.1" id="Layer_1" xmlns="http://www.w3.org/2000/svg" xmlns:xlink="http://www.w3.org/1999/xlink" x="0px" y="0px"
	 viewBox="0 0 500 394" style="enable-background:new 0 0 500 394;" xml:space="preserve">
<style type="text/css">
	.st0{fill:#FFFFFF;}
</style>
<g>
	<path class="st0" d="M300.91,256.66c-4.15-6.07-8.23-12.19-12.52-18.16c-1.07-1.49-0.96-2.62-0.31-4.09
		c1.69-3.78,3.55-7.51,4.86-11.42c0.71-2.14,1.76-2.99,3.84-3.34c7.34-1.26,14.66-2.59,21.97-4.02c7.87-1.54,12.81-7.63,12.82-15.64
		c0.02-14.63,0.01-29.27,0-43.9c-0.01-9.33-5.32-15.35-14.57-16.86c-7.16-1.17-14.28-2.55-21.39-3.98
		c-0.85-0.17-1.84-1.14-2.21-1.98c-1.88-4.21-3.68-8.48-5.28-12.8c-0.37-1-0.27-2.59,0.3-3.46c3.94-5.99,8.03-11.87,12.12-17.75
		c5.64-8.11,4.91-15.69-2.06-22.58c-10.27-10.15-20.48-20.34-30.67-30.56c-5.32-5.34-13.08-6.45-19.39-2.34
		c-6.72,4.36-13.24,9.02-19.95,13.41c-0.86,0.56-2.44,0.66-3.43,0.29c-3.89-1.42-7.6-3.31-11.52-4.63c-2.3-0.77-3.3-2.03-3.67-4.31
		c-1.08-6.6-2.33-13.17-3.45-19.76c-1.68-9.86-7.46-14.77-17.48-14.76c-14.26,0.01-28.51,0.01-42.77,0.03
		c-8.74,0.01-14.5,4.6-16.22,13.13c-1.45,7.2-2.68,14.45-4,21.68c-0.29,1.58-0.58,2.94-2.51,3.62c-4.34,1.54-8.54,3.49-12.86,5.1
		c-0.85,0.32-2.21,0.24-2.94-0.25c-6.68-4.42-13.25-9.01-19.91-13.47c-5.98-4-13.93-3.42-19.03,1.62
		C57.63,56.35,46.7,67.31,35.85,78.34c-4.97,5.05-5.7,12.75-1.8,18.77c4.35,6.72,9.01,13.24,13.4,19.93
		c0.54,0.83,0.74,2.3,0.41,3.21c-1.62,4.42-3.41,8.77-5.32,13.08c-0.37,0.83-1.41,1.74-2.28,1.92c-7.11,1.43-14.25,2.78-21.4,3.98
		c-9.52,1.59-14.64,7.42-14.64,17.05c-0.01,14.43,0,28.87,0.05,43.3c0.02,8.63,4.75,14.43,13.27,16.11
		c7.2,1.43,14.43,2.7,21.67,3.98c1.91,0.34,3.03,1.06,3.72,3.12c1.38,4.09,3.15,8.06,4.96,11.99c0.64,1.39,0.58,2.27-0.31,3.54
		c-4.51,6.39-8.96,12.83-13.28,19.35c-4.32,6.53-3.46,14.41,2.04,19.92c10.46,10.49,20.94,20.95,31.43,31.41
		c5.95,5.94,13.9,6.62,20.84,1.86c6.14-4.22,12.34-8.35,18.41-12.67c1.46-1.04,2.54-1.05,4.09-0.36c3.6,1.62,7.24,3.23,10.99,4.45
		c2.48,0.81,3.61,2.11,4.02,4.66c1.14,7.16,2.4,14.31,3.82,21.42c1.63,8.15,7.55,12.95,15.79,12.97c14.73,0.03,29.46,0.03,44.19,0
		c8.33-0.01,14.28-4.7,15.97-12.78c1.59-7.65,2.87-15.37,4.45-23.03c0.19-0.94,1.18-2.04,2.08-2.45c4.12-1.86,8.37-3.42,12.49-5.28
		c1.48-0.67,2.47-0.65,3.83,0.31c6.23,4.42,12.45,8.85,18.88,12.96c2.53,1.62,5.61,2.4,8.43,3.56c4.98-0.47,8.81-2.35,12.11-5.67
		c10.16-10.25,20.33-20.49,30.59-30.64C305.2,271.9,306.07,264.21,300.91,256.66z M289.48,269.52
		c-9.93,9.93-19.91,19.82-29.76,29.84c-1.98,2.01-3.61,2.23-5.87,0.64c-7.88-5.51-15.87-10.86-23.71-16.41
		c-1.7-1.2-2.88-1.23-4.79-0.38c-7.56,3.35-15.21,6.49-22.91,9.51c-1.97,0.77-3.27,1.39-3.68,3.82c-1.58,9.57-3.51,19.08-5.19,28.64
		c-0.45,2.56-1.69,3.45-4.21,3.44c-14.25-0.07-28.5-0.08-42.75,0c-2.63,0.01-3.92-0.82-4.37-3.55c-1.55-9.29-3.36-18.53-4.98-27.8
		c-0.42-2.43-1.44-3.7-3.98-4.63c-7.68-2.81-15.22-6.02-22.68-9.37c-2.02-0.91-3.23-0.85-5,0.41c-7.77,5.51-15.71,10.78-23.51,16.25
		c-2.39,1.67-4.03,1.4-6.09-0.69c-9.84-10.02-19.84-19.89-29.78-29.82c-2.35-2.34-2.37-3.37-0.48-6.08
		c5.65-8.12,11.27-16.26,16.8-24.47c0.48-0.71,0.49-2.1,0.15-2.94C59.48,228,56,220.18,52.9,212.21c-0.91-2.33-2.06-3.39-4.5-3.8
		c-9.29-1.59-18.52-3.47-27.81-5.05c-2.75-0.47-3.52-1.79-3.51-4.39c0.08-14.24,0.08-28.47,0-42.71c-0.02-2.64,0.85-3.86,3.58-4.32
		c9.66-1.64,19.28-3.48,28.9-5.37c0.99-0.2,2.27-1.05,2.65-1.93c3.69-8.54,7.22-17.14,10.8-25.73c0.14-0.34,0.31-0.68,0.52-1.12
		c-0.33-0.51-0.66-1.07-1.03-1.61c-5.46-7.91-10.91-15.83-16.39-23.74c-2.46-3.55-2.46-3.83,0.59-6.88
		c9.78-9.8,19.63-19.54,29.32-29.44c2.2-2.25,3.92-2.22,6.34-0.52c7.94,5.58,16,11,23.96,16.56c1.27,0.89,2.15,0.81,3.55,0.21
		c8.12-3.49,16.29-6.86,24.5-10.13c1.46-0.58,2.25-1.1,2.54-2.81c1.55-9.1,3.34-18.16,4.92-27.25c0.88-5.07,1.08-5.36,6.31-5.38
		c13.22-0.04,26.43-0.08,39.65-0.1c5.01-0.01,5.35,0.4,6.19,5.22c1.6,9.18,3.27,18.36,5.08,27.5c0.2,1.01,1.29,2.22,2.27,2.64
		c8.29,3.57,16.63,7.03,25.02,10.36c0.95,0.37,2.55,0.05,3.44-0.54c7.84-5.23,15.59-10.59,23.35-15.94c3.5-2.41,3.91-2.43,6.89,0.53
		c10.03,9.97,20.01,19.98,30.07,29.92c1.81,1.79,1.54,3.34,0.23,5.22c-5.6,8.04-11.09,16.17-16.75,24.18
		c-1.11,1.57-0.9,2.61-0.17,4.27c3.33,7.57,6.51,15.21,9.5,22.92c0.87,2.24,1.79,3.5,4.36,3.92c9.46,1.58,18.86,3.51,28.31,5.16
		c2.36,0.41,3.17,1.55,3.17,3.8c-0.04,14.44-0.05,28.89,0.02,43.33c0.01,2.54-0.93,3.72-3.47,4.17c-9.65,1.7-19.27,3.6-28.91,5.31
		c-1.58,0.28-2.5,0.77-2.96,2.39c-2.54,8.8-6.02,17.23-10.49,25.24c-0.33,0.6-0.16,1.83,0.26,2.44c5.54,8.2,11.15,16.36,16.79,24.49
		C292.01,266.15,292.01,267,289.48,269.52z"/>
	<path class="st0" d="M479.66,289.08c2.96-1.44,5.95-2.84,8.95-4.21c5.43-2.49,8.22-7.65,6.8-13.39
		c-2.14-8.68-4.44-17.33-6.85-25.95c-1.42-5.08-6.38-8.39-11.63-8.08c-2.64,0.15-5.31,0.17-7.89,0.64
		c-3.57,0.64-6.22,0.14-8.19-3.42c-0.94-1.69-1.3-2.82-0.62-4.58c1.3-3.33,2.48-6.72,3.52-10.14c1.52-5.02-0.18-10.24-4.57-12.88
		c-7.82-4.71-15.74-9.29-23.77-13.64c-5.04-2.73-10.22-1.46-14.03,2.88c-2.36,2.69-4.63,5.47-7.02,8.13
		c-0.57,0.64-1.52,1.46-2.21,1.39c-3.59-0.35-7.33-0.34-8.44-5.21c-0.59-2.6-2.25-4.95-3.46-7.4c-2.36-4.77-7.6-7.39-12.75-6.09
		c-8.77,2.21-17.52,4.48-26.2,6.99c-3.91,1.13-6.96,3.84-7.52,8.02c-0.5,3.68-0.1,7.49-0.1,11.23c0.05,0,0.1,0,0.15,0
		c0.1,1.13,0.21,2.26,0.28,3.39c0.19,3.12-4.79,6.89-7.72,5.82c-3.1-1.13-6.16-2.34-9.28-3.4c-5.86-2.01-11.49-0.26-14.37,4.62
		c-4.51,7.62-8.93,15.29-13.28,23.01c-2.79,4.95-1.74,10.61,2.49,14.37c2.18,1.94,4.26,4.08,6.68,5.66
		c2.88,1.88,3.28,4.18,2.57,7.24c-0.39,1.7-0.59,3.07-2.59,3.83c-3.08,1.16-5.97,2.8-8.95,4.21c-5.54,2.64-8.07,7.81-6.54,13.77
		c2.09,8.12,4.32,16.2,6.46,24.31c1.66,6.31,6.52,9.75,13.03,9.15c2.35-0.22,4.76-0.2,7.03-0.74c4.1-0.97,6.67,0.79,8.39,4.2
		c0.47,0.93,0.64,2.29,0.34,3.27c-1.09,3.6-2.55,7.09-3.66,10.69c-1.54,4.97,0.23,10.37,4.48,12.93c7.83,4.7,15.75,9.27,23.74,13.7
		c4.59,2.55,9.85,1.6,13.49-2.17c2.16-2.23,4.37-4.49,6.08-7.06c1.93-2.89,4.21-3.45,7.4-2.7c1.87,0.44,3.2,0.92,3.97,2.89
		c1.17,2.98,2.67,5.82,4.08,8.7c2.8,5.72,7.83,8.07,14.06,6.47c8.02-2.07,16-4.29,24.02-6.38c6.04-1.57,9.52-6.27,9.1-12.54
		c-0.17-2.64-0.16-5.31-0.64-7.89c-0.63-3.48,0.38-5.76,3.45-7.68c1.68-1.05,2.84-1.28,4.58-0.6c3.24,1.27,6.54,2.41,9.85,3.47
		c5.26,1.68,10.79-0.27,13.55-4.93c4.41-7.46,8.73-14.97,12.94-22.54c3.07-5.52,2.04-10.79-2.7-14.99
		c-2.61-2.31-5.33-4.49-7.93-6.81C475.8,296.46,476.71,290.51,479.66,289.08z M464.29,303.58c4.39,3.55,8.62,7.29,13.14,11.15
		c-3.97,6.88-7.9,13.7-11.95,20.72c-5.65-1.97-11.12-3.95-16.65-5.73c-0.91-0.29-2.36-0.03-3.14,0.54
		c-4.56,3.32-9.04,6.75-13.42,10.31c-0.75,0.61-1.29,2.01-1.24,3.01c0.28,4.99,0.75,9.97,1.25,14.94c0.17,1.7-0.26,2.5-2.05,2.95
		c-6.92,1.73-13.79,3.65-20.98,5.58c-2.26-4.73-4.63-9.32-6.65-14.05c-1.08-2.53-2.31-3.68-5.32-3.77
		c-4.58-0.13-9.15-1.05-13.68-1.87c-2.04-0.37-3.41-0.28-4.85,1.55c-3.38,4.28-7.08,8.31-10.86,12.68
		c-4.97-2.86-9.93-5.71-14.89-8.57c-0.49-0.28-0.96-0.6-1.45-0.88c-4.95-2.89-4.8-1.39-2.69-7.4c1.44-4.08,2.95-8.15,4.28-12.26
		c0.22-0.68-0.06-1.79-0.52-2.39c-3.41-4.5-6.86-8.97-10.48-13.3c-0.69-0.83-2.19-1.45-3.28-1.41c-4.9,0.18-9.79,0.62-14.68,1.01
		c-1.39,0.11-2.47,0.24-2.94-1.63c-1.77-7.02-3.71-14-5.67-21.3c4.98-2.38,9.83-4.82,14.79-7c2.19-0.96,2.91-2.19,3.05-4.64
		c0.28-4.78,1.11-9.53,1.93-14.26c0.34-1.97,0.14-3.26-1.57-4.6c-3.86-3.02-7.42-6.4-11.21-9.51c-1.33-1.09-1.29-1.83-0.44-3.25
		c3.13-5.26,6.12-10.61,9.06-15.98c1.15-2.11,2.29-2.95,4.85-1.87c4.5,1.9,9.18,3.41,13.83,4.93c0.77,0.25,2.01,0.04,2.67-0.45
		c4.54-3.34,9.03-6.76,13.42-10.31c0.77-0.62,1.38-1.99,1.34-2.99c-0.2-4.9-0.57-9.8-1.04-14.68c-0.19-1.96,0.09-3.04,2.32-3.58
		c6.85-1.67,13.62-3.6,20.59-5.48c2.55,5.31,5.09,10.44,7.48,15.65c0.63,1.37,1.35,1.9,2.9,2.07c5.42,0.57,10.81,1.48,16.24,2.06
		c1.07,0.11,2.62-0.32,3.31-1.08c3.86-4.25,7.53-8.67,11.43-13.24c6.84,3.93,13.59,7.81,20.68,11.89c-0.48,1.41-0.94,2.8-1.42,4.17
		c-1.5,4.26-3.08,8.5-4.45,12.8c-0.25,0.77,0.07,2,0.58,2.69c3.34,4.54,6.75,9.03,10.29,13.42c0.62,0.76,1.96,1.4,2.93,1.35
		c5.73-0.31,11.46-0.84,17.47-1.32c2.08,7.72,4.14,15.3,6.25,23.13c-5.17,2.47-10.13,4.94-15.18,7.2c-1.8,0.81-2.36,1.85-2.54,3.8
		c-0.49,5.15-1.24,10.28-2.13,15.38C462.69,301.46,462.9,302.45,464.29,303.58z"/>
	<path class="st0" d="M168.34,94.9c-46.16-0.17-83.33,37.09-83.24,83.13c0.09,45.02,37.18,82.41,82.01,82.44
		c46.61,0.03,83.57-36.68,83.56-83C250.67,132.03,213.63,94.88,168.34,94.9z M167.87,247.64c-38.2,0.25-70.04-31.17-70-69.77
		c0.04-39.04,31.09-70.1,70.11-70.22c38.14-0.12,69.78,31.26,70.02,69.54C238.24,216,207,247.38,167.87,247.64z"/>
	<path class="st0" d="M398.95,233.36c-27.35,0.09-49.77,22.68-49.73,50.1c0.04,27.63,22.47,50,50.11,49.98
		c27.63-0.02,49.84-22.43,49.78-50.23C449.06,255.58,426.61,233.27,398.95,233.36z M398.32,320.63
		c-18.96-0.31-37.02-16.78-36.21-37.5c0.24-20.91,16.76-37.05,37.72-36.86c20.73,0.19,36.89,17.04,36.55,38.31
		C436.05,304.27,419.23,320.98,398.32,320.63z"/>
</g>
</svg>
