<svg xmlns="http://www.w3.org/2000/svg" width="43.571" height="34.065" viewBox="0 0 43.571 34.065">
  <g id="Group_3635" data-name="Group 3635" transform="translate(0.15 0.15)">
    <g id="Group_3627" data-name="Group 3627" transform="translate(15.946 26.916)">
      <path id="Path_3462" data-name="Path 3462" d="M1419.981,890.883a3.424,3.424,0,1,1,3.425-3.424A3.428,3.428,0,0,1,1419.981,890.883Zm0-5.639a2.214,2.214,0,1,0,2.214,2.214A2.217,2.217,0,0,0,1419.981,885.244Z" transform="translate(-1416.557 -884.034)" fill="#0000df" stroke="#0000df" stroke-width="0.3"/>
    </g>
    <g id="Group_3628" data-name="Group 3628" transform="translate(32.366 26.916)">
      <path id="Path_3463" data-name="Path 3463" d="M1476.867,890.883a3.424,3.424,0,1,1,3.424-3.424A3.428,3.428,0,0,1,1476.867,890.883Zm0-5.639a2.214,2.214,0,1,0,2.214,2.214A2.217,2.217,0,0,0,1476.867,885.244Z" transform="translate(-1473.443 -884.034)" fill="#0000df" stroke="#0000df" stroke-width="0.3"/>
    </g>
    <g id="Group_3629" data-name="Group 3629" transform="translate(0 0)">
      <path id="Path_3464" data-name="Path 3464" d="M1402.893,816.018h-28.924a.6.6,0,0,1-.592-.481l-4.961-23.543h-6.5a.6.6,0,1,1,0-1.21h6.99a.6.6,0,0,1,.592.48l4.961,23.543h28.433a.605.605,0,0,1,0,1.21Z" transform="translate(-1361.312 -790.785)" fill="#0000df" stroke="#0000df" stroke-width="0.3"/>
    </g>
    <g id="Group_3630" data-name="Group 3630" transform="translate(7.726 3.493)">
      <path id="Path_3465" data-name="Path 3465" d="M1421.572,819.162h-29.714a.6.6,0,0,1,0-1.21h29.172l1.317-12.036-33.7-1.823a.605.605,0,0,1,.065-1.208l34.335,1.857a.605.605,0,0,1,.569.67l-1.446,13.211A.605.605,0,0,1,1421.572,819.162Z" transform="translate(-1388.078 -802.885)" fill="#0000df" stroke="#0000df" stroke-width="0.3"/>
    </g>
    <g id="Group_3631" data-name="Group 3631" transform="translate(9.294 10.936)">
      <path id="Path_3466" data-name="Path 3466" d="M1426.154,830.959h-.021l-32.037-1.075a.605.605,0,0,1,.04-1.21l32.037,1.075a.605.605,0,0,1-.02,1.21Z" transform="translate(-1393.512 -828.674)" fill="#0000df" stroke="#0000df" stroke-width="0.3"/>
    </g>
    <g id="Group_3632" data-name="Group 3632" transform="translate(16.274 3.955)">
      <path id="Path_3467" data-name="Path 3467" d="M1419.559,820.3a.605.605,0,0,1-.6-.553l-1.261-14.6a.605.605,0,1,1,1.206-.1l1.261,14.6a.605.605,0,0,1-.551.655Z" transform="translate(-1417.694 -804.486)" fill="#0000df" stroke="#0000df" stroke-width="0.3"/>
    </g>
    <g id="Group_3633" data-name="Group 3633" transform="translate(25.667 4.463)">
      <path id="Path_3468" data-name="Path 3468" d="M1450.84,821.553a.6.6,0,0,1-.6-.6v-14.1a.6.6,0,1,1,1.21,0v14.1A.6.6,0,0,1,1450.84,821.553Z" transform="translate(-1450.235 -806.246)" fill="#0000df" stroke="#0000df" stroke-width="0.3"/>
    </g>
    <g id="Group_3634" data-name="Group 3634" transform="translate(33.383 4.932)">
      <path id="Path_3469" data-name="Path 3469" d="M1477.574,822.711h-.044a.6.6,0,0,1-.561-.646l.968-13.628a.605.605,0,0,1,1.207.086l-.968,13.627A.605.605,0,0,1,1477.574,822.711Z" transform="translate(-1476.969 -807.873)" fill="#0000df" stroke="#0000df" stroke-width="0.3"/>
    </g>
  </g>
</svg>
