<svg xmlns="http://www.w3.org/2000/svg" width="41.712" height="41.712" viewBox="0 0 41.712 41.712">
  <g id="Group_3606" data-name="Group 3606" transform="translate(0.15 0.15)">
    <g id="Group_3604" data-name="Group 3604" transform="translate(9.761 9.761)">
      <path id="Path_3445" data-name="Path 3445" d="M3195.521,232.223a10.945,10.945,0,1,1,10.945-10.945A10.958,10.958,0,0,1,3195.521,232.223Zm0-20.647a9.7,9.7,0,1,0,9.7,9.7A9.713,9.713,0,0,0,3195.521,211.576Z" transform="translate(-3184.576 -210.333)" fill="#0000df" stroke="#0000df" stroke-width="0.3"/>
    </g>
    <g id="Group_3605" data-name="Group 3605" transform="translate(0 0)">
      <path id="Path_3446" data-name="Path 3446" d="M3173.553,218.829h-2.373a3.04,3.04,0,0,1-3.036-3.036v-2.077a16.037,16.037,0,0,1-3.819-1.581l-1.468,1.468a3.04,3.04,0,0,1-4.294,0l-1.677-1.678a3.039,3.039,0,0,1,0-4.293l1.468-1.468a16.054,16.054,0,0,1-1.581-3.819H3154.7a3.039,3.039,0,0,1-3.036-3.036v-2.373a3.039,3.039,0,0,1,3.036-3.036h2.077a16.044,16.044,0,0,1,1.581-3.819l-1.468-1.468a3.039,3.039,0,0,1,0-4.293l1.677-1.678a3.04,3.04,0,0,1,4.294,0l1.468,1.468a16.048,16.048,0,0,1,3.819-1.581v-2.077a3.039,3.039,0,0,1,3.036-3.036h2.373a3.039,3.039,0,0,1,3.036,3.036v2.077a16.03,16.03,0,0,1,3.819,1.581l1.468-1.468a3.035,3.035,0,0,1,4.293,0l1.678,1.678a3.04,3.04,0,0,1,0,4.293l-1.468,1.468a16.047,16.047,0,0,1,1.58,3.819h2.077a3.039,3.039,0,0,1,3.036,3.036v2.373a3.039,3.039,0,0,1-3.036,3.036h-2.077a16.032,16.032,0,0,1-1.58,3.819l1.468,1.468a3.04,3.04,0,0,1,0,4.293l-1.678,1.678a3.035,3.035,0,0,1-4.293,0l-1.468-1.468a16.043,16.043,0,0,1-3.819,1.581v2.077A3.039,3.039,0,0,1,3173.553,218.829Zm-9.326-8.1a.62.62,0,0,1,.326.093,14.8,14.8,0,0,0,4.357,1.8.622.622,0,0,1,.479.6v2.561a1.8,1.8,0,0,0,1.793,1.793h2.373a1.8,1.8,0,0,0,1.792-1.793v-2.561a.622.622,0,0,1,.478-.6,14.79,14.79,0,0,0,4.347-1.8l.028-.017a.621.621,0,0,1,.785.14l1.771,1.771a1.793,1.793,0,0,0,2.536,0l1.677-1.678a1.8,1.8,0,0,0,0-2.535l-1.772-1.772a.621.621,0,0,1-.155-.753c.008-.016.017-.033.027-.048h0a14.8,14.8,0,0,0,1.8-4.357.621.621,0,0,1,.6-.478h2.561a1.8,1.8,0,0,0,1.793-1.793v-2.373a1.8,1.8,0,0,0-1.793-1.793h-2.561a.621.621,0,0,1-.6-.478,14.813,14.813,0,0,0-1.8-4.356.621.621,0,0,1,.09-.766l1.81-1.81a1.8,1.8,0,0,0,0-2.535l-1.677-1.678a1.793,1.793,0,0,0-2.536,0l-1.81,1.81a.622.622,0,0,1-.766.09,14.79,14.79,0,0,0-4.355-1.8.622.622,0,0,1-.478-.6v-2.561a1.8,1.8,0,0,0-1.792-1.793h-2.373a1.8,1.8,0,0,0-1.793,1.793v2.561a.622.622,0,0,1-.479.6,14.812,14.812,0,0,0-4.355,1.8.622.622,0,0,1-.765-.09l-1.81-1.81a1.8,1.8,0,0,0-2.535,0l-1.678,1.677a1.8,1.8,0,0,0,0,2.535l1.81,1.81a.621.621,0,0,1,.09.766,14.814,14.814,0,0,0-1.8,4.356.622.622,0,0,1-.6.478H3154.7a1.8,1.8,0,0,0-1.793,1.793v2.373a1.8,1.8,0,0,0,1.793,1.793h2.561a.622.622,0,0,1,.6.478,14.807,14.807,0,0,0,1.8,4.357.621.621,0,0,1-.127.8l-1.774,1.773a1.8,1.8,0,0,0,0,2.535l1.678,1.678a1.8,1.8,0,0,0,2.535,0l1.773-1.773A.621.621,0,0,1,3164.227,210.731Z" transform="translate(-3151.661 -177.417)" fill="#0000df" stroke="#0000df" stroke-width="0.3"/>
    </g>
  </g>
</svg>
