<svg xmlns="http://www.w3.org/2000/svg" width="35.473" height="34.919" viewBox="0 0 35.473 34.919">
  <g id="Group_3645" data-name="Group 3645" transform="translate(0.15 0.15)">
    <g id="Group_3636" data-name="Group 3636" transform="translate(14.404 0)">
      <path id="Path_3470" data-name="Path 3470" d="M4997.108,1388.162a3.184,3.184,0,1,1,3.184-3.184A3.187,3.187,0,0,1,4997.108,1388.162Zm0-5.323a2.14,2.14,0,1,0,2.14,2.14A2.142,2.142,0,0,0,4997.108,1382.839Z" transform="translate(-4993.925 -1381.795)" fill="#0000df" stroke="#0000df" stroke-width="0.3"/>
    </g>
    <g id="Group_3637" data-name="Group 3637" transform="translate(0 9.562)">
      <path id="Path_3471" data-name="Path 3471" d="M4944.983,1445.25a2.345,2.345,0,0,0-3.65,0,2.349,2.349,0,0,1-2.346-2.347V1433a1.882,1.882,0,0,1-.737.23,1.974,1.974,0,0,1-2.165-1.964v-7.655a3.427,3.427,0,0,1,3.423-3.423h7.235a.522.522,0,0,1,.492.7,2.612,2.612,0,0,0-.156.883v8.315a1.035,1.035,0,0,0,.168.558.52.52,0,0,1,.081.277s0,.132,0,.268c0,.007,0,.014,0,.021,0,.023,0,.047,0,.073v.022c0,.091,0,.165,0,.176h0V1442.9A2.35,2.35,0,0,1,4944.983,1445.25Zm-1.3-2.347a1.3,1.3,0,1,0,2.6,0v-11.69c0-.009,0-.017,0-.025,0-.039,0-.079,0-.121a2.072,2.072,0,0,1-.25-.979v-8.315a3.593,3.593,0,0,1,.041-.537h-6.566a2.382,2.382,0,0,0-2.38,2.379v7.655a.931.931,0,0,0,.3.688.919.919,0,0,0,.717.237.97.97,0,0,0,.836-.986v-5.256a.522.522,0,1,1,1.044,0V1442.9a1.3,1.3,0,1,0,2.6,0v-8.826a.522.522,0,0,1,1.044,0Z" transform="translate(-4936.085 -1420.192)" fill="#0000df" stroke="#0000df" stroke-width="0.3"/>
    </g>
    <g id="Group_3638" data-name="Group 3638" transform="translate(4.101 2.685)">
      <path id="Path_3472" data-name="Path 3472" d="M4955.524,1398.521a2.972,2.972,0,1,1,2.973-2.972A2.976,2.976,0,0,1,4955.524,1398.521Zm0-4.9a1.929,1.929,0,1,0,1.929,1.929A1.931,1.931,0,0,0,4955.524,1393.62Z" transform="translate(-4952.552 -1392.576)" fill="#0000df" stroke="#0000df" stroke-width="0.3"/>
    </g>
    <g id="Group_3639" data-name="Group 3639" transform="translate(23.929 9.562)">
      <path id="Path_3473" data-name="Path 3473" d="M5038.17,1445.25a2.345,2.345,0,0,0-3.65,0,2.35,2.35,0,0,1-2.347-2.347v-11.695a.517.517,0,0,1,.024-.154,5.617,5.617,0,0,0,.228-.966v-8.315a2.618,2.618,0,0,0-.156-.883.522.522,0,0,1,.492-.7h7.233a3.426,3.426,0,0,1,3.423,3.423v7.655a1.973,1.973,0,0,1-2.165,1.964,1.874,1.874,0,0,1-.736-.231v9.9A2.35,2.35,0,0,1,5038.17,1445.25Zm-1.3-2.347a1.3,1.3,0,1,0,2.6,0v-11.655c0-.013,0-.027,0-.04v-5.256a.522.522,0,1,1,1.044,0v5.221c0,.013,0,.025,0,.038a.971.971,0,0,0,.835.983.928.928,0,0,0,1.021-.924v-7.655a2.382,2.382,0,0,0-2.379-2.379h-6.566a3.593,3.593,0,0,1,.041.537v8.315a5.54,5.54,0,0,1-.251,1.2V1442.9a1.3,1.3,0,0,0,2.605,0v-8.826a.522.522,0,0,1,1.044,0Z" transform="translate(-5032.174 -1420.192)" fill="#0000df" stroke="#0000df" stroke-width="0.3"/>
    </g>
    <g id="Group_3640" data-name="Group 3640" transform="translate(9.95 7.47)">
      <path id="Path_3474" data-name="Path 3474" d="M4985.659,1438.917a2.5,2.5,0,0,0-3.964,0,2.507,2.507,0,0,1-2.5-2.5v-10.831a2,2,0,0,1-.849.284,2.115,2.115,0,0,1-2.3-2.088v-8.315a3.685,3.685,0,0,1,3.673-3.673h7.928a3.68,3.68,0,0,1,3.457,2.439h0a3.663,3.663,0,0,1,.216,1.234v8.315a2.113,2.113,0,0,1-2.3,2.088,2,2,0,0,1-.849-.284v10.831A2.507,2.507,0,0,1,4985.659,1438.917Zm-1.982-3.026a.522.522,0,0,1,.522.522,1.46,1.46,0,0,0,2.92,0v-12.7a.522.522,0,0,1,.521-.522h0a.522.522,0,0,1,.522.52,1.1,1.1,0,0,0,.948,1.112,1.052,1.052,0,0,0,.989-.488,1.034,1.034,0,0,0,.17-.561v-8.315a2.639,2.639,0,0,0-2.629-2.629h-7.928a2.639,2.639,0,0,0-2.629,2.629v8.315a1.039,1.039,0,0,0,.167.558,1.05,1.05,0,0,0,.991.49,1.1,1.1,0,0,0,.948-1.116.522.522,0,0,1,1.044,0v12.7a1.46,1.46,0,1,0,2.919,0A.522.522,0,0,1,4983.677,1435.891Z" transform="translate(-4976.04 -1411.79)" fill="#0000df" stroke="#0000df" stroke-width="0.3"/>
    </g>
    <g id="Group_3641" data-name="Group 3641" transform="translate(25.128 2.685)">
      <path id="Path_3475" data-name="Path 3475" d="M5039.961,1398.521a2.972,2.972,0,1,1,2.973-2.972A2.976,2.976,0,0,1,5039.961,1398.521Zm0-4.9a1.929,1.929,0,1,0,1.928,1.929A1.93,1.93,0,0,0,5039.961,1393.62Z" transform="translate(-5036.989 -1392.576)" fill="#0000df" stroke="#0000df" stroke-width="0.3"/>
    </g>
    <g id="Group_3642" data-name="Group 3642" transform="translate(17.065 22.039)">
      <path id="Path_3476" data-name="Path 3476" d="M5005.135,1480.87a.522.522,0,0,1-.522-.522v-9.531a.522.522,0,0,1,1.044,0v9.531A.522.522,0,0,1,5005.135,1480.87Z" transform="translate(-5004.613 -1470.295)" fill="#0000df" stroke="#0000df" stroke-width="0.3"/>
    </g>
    <g id="Group_3643" data-name="Group 3643" transform="translate(13.101 12.384)">
      <path id="Path_3477" data-name="Path 3477" d="M4989.217,1439.052a.522.522,0,0,1-.522-.522v-6.483a.522.522,0,1,1,1.044,0v6.483A.522.522,0,0,1,4989.217,1439.052Z" transform="translate(-4988.695 -1431.525)" fill="#0000df" stroke="#0000df" stroke-width="0.3"/>
    </g>
    <g id="Group_3644" data-name="Group 3644" transform="translate(21.029 12.384)">
      <path id="Path_3478" data-name="Path 3478" d="M5021.052,1439.058a.522.522,0,0,1-.522-.522v-6.489a.522.522,0,1,1,1.044,0v6.489A.523.523,0,0,1,5021.052,1439.058Z" transform="translate(-5020.53 -1431.525)" fill="#0000df" stroke="#0000df" stroke-width="0.3"/>
    </g>
  </g>
</svg>
