<svg xmlns="http://www.w3.org/2000/svg" width="32.896" height="39.359" viewBox="0 0 32.896 39.359">
  <g id="Group_3626" data-name="Group 3626" transform="translate(0.15 0.15)">
    <g id="Group_3621" data-name="Group 3621" transform="translate(15.741 13.268)">
      <path id="Path_3457" data-name="Path 3457" d="M3223.537,1740.472a.558.558,0,0,1-.27-.07l-3.59-1.993a.557.557,0,0,1-.286-.487v-8.6a.557.557,0,0,1,1.114,0v8.275l3.3,1.833a.557.557,0,0,1-.271,1.045Z" transform="translate(-3219.391 -1728.762)" fill="#0000df" stroke="#0000df" stroke-width="0.3"/>
    </g>
    <g id="Group_3622" data-name="Group 3622" transform="translate(2.82 8.678)">
      <path id="Path_3458" data-name="Path 3458" d="M3184.257,1738.994a13.754,13.754,0,1,1,13.478-13.751A13.632,13.632,0,0,1,3184.257,1738.994Zm0-26.387a12.639,12.639,0,1,0,12.364,12.636A12.517,12.517,0,0,0,3184.257,1712.606Z" transform="translate(-3170.779 -1711.492)" fill="#0000df" stroke="#0000df" stroke-width="0.3"/>
    </g>
    <g id="Group_3623" data-name="Group 3623" transform="translate(0 5.798)">
      <path id="Path_3459" data-name="Path 3459" d="M3176.467,1733.919a16.634,16.634,0,1,1,16.3-16.63A16.485,16.485,0,0,1,3176.467,1733.919Zm0-32.146a15.52,15.52,0,1,0,15.184,15.516A15.37,15.37,0,0,0,3176.467,1701.773Z" transform="translate(-3160.169 -1700.659)" fill="#0000df" stroke="#0000df" stroke-width="0.3"/>
    </g>
    <g id="Group_3624" data-name="Group 3624" transform="translate(12.151 0)">
      <path id="Path_3460" data-name="Path 3460" d="M3213.621,1683.04h-7.18a.557.557,0,0,1-.557-.557V1679.4a.557.557,0,0,1,.557-.557h7.18a.557.557,0,0,1,.557.557v3.081A.557.557,0,0,1,3213.621,1683.04Zm-6.623-1.115h6.066v-1.966H3207Z" transform="translate(-3205.884 -1678.845)" fill="#0000df" stroke="#0000df" stroke-width="0.3"/>
    </g>
    <g id="Group_3625" data-name="Group 3625" transform="translate(14.224 3.08)">
      <path id="Path_3461" data-name="Path 3461" d="M3217.274,1694.266h-3.033a.557.557,0,0,1-.557-.557v-2.718a.557.557,0,0,1,.557-.557h3.033a.557.557,0,0,1,.557.557v2.718A.557.557,0,0,1,3217.274,1694.266Zm-2.476-1.114h1.919v-1.6H3214.8Z" transform="translate(-3213.684 -1690.434)" fill="#0000df" stroke="#0000df" stroke-width="0.3"/>
    </g>
  </g>
</svg>
