<svg xmlns="http://www.w3.org/2000/svg" width="40.816" height="33.069" viewBox="0 0 40.816 33.069">
  <g id="Group_3620" data-name="Group 3620" transform="translate(0.15 0.15)">
    <g id="Group_3613" data-name="Group 3613" transform="translate(0 0)">
      <g id="Group_3607" data-name="Group 3607" transform="translate(0.001)">
        <path id="Path_3447" data-name="Path 3447" d="M2291.214,820.381h-36.628a1.945,1.945,0,0,1-1.943-1.943V789.555a1.945,1.945,0,0,1,1.943-1.943h36.628a1.945,1.945,0,0,1,1.943,1.943v28.883A1.945,1.945,0,0,1,2291.214,820.381Zm-36.628-31.655a.83.83,0,0,0-.83.829v28.883a.83.83,0,0,0,.83.829h36.628a.83.83,0,0,0,.829-.829V789.555a.83.83,0,0,0-.829-.829Z" transform="translate(-2252.642 -787.612)" fill="#0000df" stroke="#0000df" stroke-width="0.3"/>
      </g>
      <g id="Group_3608" data-name="Group 3608" transform="translate(0 0.001)">
        <path id="Path_3448" data-name="Path 3448" d="M2292.595,794.849h-39.4a.557.557,0,0,1-.557-.557v-4.735a1.945,1.945,0,0,1,1.943-1.943h36.629a1.945,1.945,0,0,1,1.943,1.943v4.735A.557.557,0,0,1,2292.595,794.849Zm-38.844-1.114h38.287v-4.177a.83.83,0,0,0-.829-.829H2254.58a.83.83,0,0,0-.829.829Z" transform="translate(-2252.637 -787.614)" fill="#0000df" stroke="#0000df" stroke-width="0.3"/>
      </g>
      <g id="Group_3612" data-name="Group 3612" transform="translate(3.052 3.062)">
        <g id="Group_3609" data-name="Group 3609">
          <path id="Path_3449" data-name="Path 3449" d="M2264.68,800.25a.557.557,0,0,1-.392-.953.689.689,0,0,1,.083-.07.64.64,0,0,1,.1-.05.425.425,0,0,1,.1-.031.552.552,0,0,1,.665.546.561.561,0,0,1-.161.392A.572.572,0,0,1,2264.68,800.25Z" transform="translate(-2264.123 -799.136)" fill="#0000df" stroke="#0000df" stroke-width="0.3"/>
        </g>
        <g id="Group_3610" data-name="Group 3610" transform="translate(4.863)">
          <path id="Path_3450" data-name="Path 3450" d="M2282.98,800.25a.717.717,0,0,1-.109-.011.666.666,0,0,1-.1-.034.615.615,0,0,1-.1-.05.5.5,0,0,1-.083-.07.555.555,0,0,1,0-.788.711.711,0,0,1,.083-.07.629.629,0,0,1,.1-.05.429.429,0,0,1,.1-.031.569.569,0,0,1,.5.15.561.561,0,0,1,0,.788.656.656,0,0,1-.086.07.594.594,0,0,1-.094.05.711.711,0,0,1-.106.034A.727.727,0,0,1,2282.98,800.25Z" transform="translate(-2282.423 -799.136)" fill="#0000df" stroke="#0000df" stroke-width="0.3"/>
        </g>
        <g id="Group_3611" data-name="Group 3611" transform="translate(2.431 0)">
          <path id="Path_3451" data-name="Path 3451" d="M2273.83,800.25a.557.557,0,0,1-.393-.953.7.7,0,0,1,.083-.07.64.64,0,0,1,.1-.05.437.437,0,0,1,.1-.031.572.572,0,0,1,.217,0,.454.454,0,0,1,.106.031.638.638,0,0,1,.095.05c.031.022.058.045.086.07a.561.561,0,0,1,0,.788A.571.571,0,0,1,2273.83,800.25Z" transform="translate(-2273.273 -799.137)" fill="#0000df" stroke="#0000df" stroke-width="0.3"/>
        </g>
      </g>
    </g>
    <g id="Group_3614" data-name="Group 3614" transform="translate(4.681 27.537)">
      <path id="Path_3452" data-name="Path 3452" d="M2300.85,892.361h-30.041a.557.557,0,0,1,0-1.114h30.041a.557.557,0,1,1,0,1.114Z" transform="translate(-2270.252 -891.247)" fill="#0000df" stroke="#0000df" stroke-width="0.3"/>
    </g>
    <g id="Group_3619" data-name="Group 3619" transform="translate(6.766 12.496)">
      <g id="Group_3615" data-name="Group 3615" transform="translate(0 10.028)">
        <path id="Path_3453" data-name="Path 3453" d="M2282.867,878.506h-4.21a.557.557,0,0,1-.557-.557v-5.014a.557.557,0,0,1,.557-.557h4.21a.557.557,0,0,1,.557.557v5.014A.557.557,0,0,1,2282.867,878.506Zm-3.653-1.114h3.1v-3.9h-3.1Z" transform="translate(-2278.1 -872.378)" fill="#0000df" stroke="#0000df" stroke-width="0.3"/>
      </g>
      <g id="Group_3616" data-name="Group 3616" transform="translate(7.22 4.011)">
        <path id="Path_3454" data-name="Path 3454" d="M2310.039,861.879h-4.21a.557.557,0,0,1-.557-.557V850.291a.557.557,0,0,1,.557-.557h4.21a.557.557,0,0,1,.557.557v11.031A.557.557,0,0,1,2310.039,861.879Zm-3.653-1.114h3.1v-9.917h-3.1Z" transform="translate(-2305.272 -849.734)" fill="#0000df" stroke="#0000df" stroke-width="0.3"/>
      </g>
      <g id="Group_3617" data-name="Group 3617" transform="translate(14.44 7.22)">
        <path id="Path_3455" data-name="Path 3455" d="M2337.212,870.747H2333a.557.557,0,0,1-.557-.557v-7.822a.557.557,0,0,1,.557-.557h4.21a.557.557,0,0,1,.557.557v7.822A.557.557,0,0,1,2337.212,870.747Zm-3.654-1.114h3.1v-6.708h-3.1Z" transform="translate(-2332.444 -861.811)" fill="#0000df" stroke="#0000df" stroke-width="0.3"/>
      </g>
      <g id="Group_3618" data-name="Group 3618" transform="translate(21.66)">
        <path id="Path_3456" data-name="Path 3456" d="M2364.384,850.795h-4.21a.557.557,0,0,1-.557-.557V835.2a.557.557,0,0,1,.557-.557h4.21a.557.557,0,0,1,.557.557v15.042A.557.557,0,0,1,2364.384,850.795Zm-3.653-1.114h3.1V835.753h-3.1Z" transform="translate(-2359.617 -834.639)" fill="#0000df" stroke="#0000df" stroke-width="0.3"/>
      </g>
    </g>
  </g>
</svg>
