<svg xmlns="http://www.w3.org/2000/svg" width="34.134" height="34.11" viewBox="0 0 34.134 34.11">
  <g id="Group_3557" data-name="Group 3557" transform="translate(-180.313 -181.478)">
    <path id="Path_3410" data-name="Path 3410" d="M206.076,215.238a16.011,16.011,0,0,1-2.188-.228,16.6,16.6,0,0,1-3.687-1.132,30.528,30.528,0,0,1-4.867-2.667,36.392,36.392,0,0,1-5.775-4.867,38.2,38.2,0,0,1-4.025-4.583,32.923,32.923,0,0,1-2.577-4.059,22.132,22.132,0,0,1-1.474-3.407,18.194,18.194,0,0,1-.67-2.651,8.859,8.859,0,0,1-.143-1.808q.032-.577.034-.658a.647.647,0,0,1,.005-.074,3.883,3.883,0,0,1,.356-1.133,3.107,3.107,0,0,1,.695-.96l4.547-4.547a2.034,2.034,0,0,1,1.475-.636,1.8,1.8,0,0,1,1.11.366,2.891,2.891,0,0,1,.711.773c.008.012.015.025.021.037l3.666,6.954a2.184,2.184,0,0,1,.221,1.559,2.67,2.67,0,0,1-.728,1.364l-1.656,1.656a.346.346,0,0,0-.013.037c-.009.027-.015.048-.018.062a5.888,5.888,0,0,0,.551,1.424A14.748,14.748,0,0,0,192.874,198a21.721,21.721,0,0,0,2.373,2.654,22.227,22.227,0,0,0,2.682,2.4,15.387,15.387,0,0,0,1.933,1.241,4.682,4.682,0,0,0,1.095.448l.33.067.047-.015.035-.013,1.927-1.961.027-.026a2.637,2.637,0,0,1,1.794-.681,2.394,2.394,0,0,1,1.093.222.54.54,0,0,1,.138.057l6.612,3.906a2.25,2.25,0,0,1,1.11,1.486c0,.012,0,.024.006.036a2.11,2.11,0,0,1-.632,1.818l-4.548,4.514a3.135,3.135,0,0,1-.96.694,3.876,3.876,0,0,1-1.134.356.53.53,0,0,1-.076.005l-.152.015C206.431,215.231,206.265,215.238,206.076,215.238Zm-24.3-26.011c0,.076-.011.242-.035.668a7.981,7.981,0,0,0,.132,1.581,17.139,17.139,0,0,0,.632,2.491,21.114,21.114,0,0,0,1.4,3.239,31.812,31.812,0,0,0,2.493,3.924,37.185,37.185,0,0,0,3.917,4.456,35.372,35.372,0,0,0,5.6,4.729,29.508,29.508,0,0,0,4.692,2.573,15.579,15.579,0,0,0,3.439,1.063,15.386,15.386,0,0,0,2.026.216c.2,0,.325-.008.4-.014s.151-.014.2-.017a2.823,2.823,0,0,0,.8-.258,2.058,2.058,0,0,0,.641-.459l.02-.021,4.556-4.522a1.033,1.033,0,0,0,.328-.9,1.21,1.21,0,0,0-.61-.763l-6.512-3.846a.536.536,0,0,1-.127-.055,1.316,1.316,0,0,0-.65-.129,1.57,1.57,0,0,0-1.071.4l-1.939,1.974a1.081,1.081,0,0,1-.433.252.935.935,0,0,1-.5.069l-.428-.086a5.726,5.726,0,0,1-1.371-.544,16.166,16.166,0,0,1-2.077-1.329,23.231,23.231,0,0,1-2.808-2.508,22.7,22.7,0,0,1-2.483-2.783,15.748,15.748,0,0,1-1.313-2.078,6.711,6.711,0,0,1-.663-1.784.531.531,0,0,1-.01-.1,1.338,1.338,0,0,1,.08-.429,1.067,1.067,0,0,1,.249-.431l1.678-1.678a1.6,1.6,0,0,0,.437-.828,1.138,1.138,0,0,0-.114-.826l-3.662-6.947a1.817,1.817,0,0,0-.438-.473.736.736,0,0,0-.468-.152.975.975,0,0,0-.718.323l-4.556,4.556-.02.019a2.043,2.043,0,0,0-.458.64A2.836,2.836,0,0,0,181.773,189.227Zm19.61,15.544ZM191.107,194.56h0Zm.028-.035Z" transform="translate(0)" fill="#0000df" stroke="#0000df" stroke-width="0.7"/>
  </g>
</svg>
