<svg xmlns="http://www.w3.org/2000/svg" width="100.587" height="88.038" viewBox="0 0 100.587 88.038">
  <g id="Group_1118" data-name="Group 1118" transform="translate(1.001 1)">
    <g id="Group_1114" data-name="Group 1114" transform="translate(0 42.368)">
      <g id="Group_1112" data-name="Group 1112" transform="translate(6.264)">
        <path id="Path_1088" data-name="Path 1088" d="M3706.51,391.615a43.017,43.017,0,0,1-42.953-42.194,1.449,1.449,0,0,1,2.9-.057,40.135,40.135,0,0,0,75.258,18.628,1.45,1.45,0,0,1,1.271-.749,1.473,1.473,0,0,1,.7.181,1.453,1.453,0,0,1,.569,1.969A43.1,43.1,0,0,1,3706.51,391.615Z" transform="translate(-3663.557 -347.945)" fill="#0000df" stroke="#0000df" stroke-width="2"/>
      </g>
      <g id="Group_1113" data-name="Group 1113" transform="translate(0 0.005)">
        <path id="Path_1089" data-name="Path 1089" d="M3644.773,358.324a1.453,1.453,0,0,1-.93-.34,1.447,1.447,0,0,1-.176-2.04l6.271-7.471a1.449,1.449,0,0,1,.986-.512h.029a1.5,1.5,0,0,1,1.027.335l7.472,6.273a1.448,1.448,0,1,1-1.862,2.217l-6.49-5.449-5.215,6.47A1.446,1.446,0,0,1,3644.773,358.324Z" transform="translate(-3643.327 -347.96)" fill="#0000df" stroke="#0000df" stroke-width="2"/>
      </g>
    </g>
    <g id="Group_1117" data-name="Group 1117" transform="translate(11.442 0)">
      <g id="Group_1115" data-name="Group 1115">
        <path id="Path_1090" data-name="Path 1090" d="M3759.7,254.783a1.452,1.452,0,0,1-1.447-1.419A40.135,40.135,0,0,0,3683,234.737a1.457,1.457,0,0,1-1.271.748,1.474,1.474,0,0,1-.7-.18,1.445,1.445,0,0,1-.569-1.967,43.03,43.03,0,0,1,80.691,19.97,1.443,1.443,0,0,1-1.418,1.476h-.029Z" transform="translate(-3680.28 -211.113)" fill="#0000df" stroke="#0000df" stroke-width="2"/>
      </g>
      <g id="Group_1116" data-name="Group 1116" transform="translate(70.502 33.305)">
        <path id="Path_1091" data-name="Path 1091" d="M3916.894,329.043a1.468,1.468,0,0,1-.934-.336l-7.472-6.275a1.448,1.448,0,1,1,1.864-2.218l6.493,5.449,5.215-6.472a1.448,1.448,0,0,1,2.218,1.863L3918,328.528a1.45,1.45,0,0,1-.984.511Z" transform="translate(-3907.974 -318.675)" fill="#0000df" stroke="#0000df" stroke-width="2"/>
      </g>
    </g>
  </g>
</svg>
